<?xml version="1.0" encoding="utf-8" standalone="no"?>
<!DOCTYPE svg PUBLIC "-//W3C//DTD SVG 1.1//EN"
  "http://www.w3.org/Graphics/SVG/1.1/DTD/svg11.dtd">
<svg xmlns:xlink="http://www.w3.org/1999/xlink" width="1008pt" height="432pt" viewBox="0 0 1008 432" xmlns="http://www.w3.org/2000/svg" version="1.1">
 <metadata>
  <rdf:RDF xmlns:dc="http://purl.org/dc/elements/1.1/" xmlns:cc="http://creativecommons.org/ns#" xmlns:rdf="http://www.w3.org/1999/02/22-rdf-syntax-ns#">
   <cc:Work>
    <dc:type rdf:resource="http://purl.org/dc/dcmitype/StillImage"/>
    <dc:date>2024-12-11T21:40:34.801558</dc:date>
    <dc:format>image/svg+xml</dc:format>
    <dc:creator>
     <cc:Agent>
      <dc:title>Matplotlib v3.8.1, https://matplotlib.org/</dc:title>
     </cc:Agent>
    </dc:creator>
   </cc:Work>
  </rdf:RDF>
 </metadata>
 <defs>
  <style type="text/css">*{stroke-linejoin: round; stroke-linecap: butt}</style>
 </defs>
 <g id="figure_1">
  <g id="patch_1">
   <path d="M 0 432 
L 1008 432 
L 1008 0 
L 0 0 
z
" style="fill: #ffffff"/>
  </g>
  <g id="axes_1">
   <g id="patch_2">
    <path d="M 65.27 377.098107 
L 997.2 377.098107 
L 997.2 21.72 
L 65.27 21.72 
z
" style="fill: #ffffff"/>
   </g>
   <g id="patch_3">
    <path d="M 107.630455 109.346449 
L 123.319512 109.346449 
L 123.319512 125.816424 
L 107.630455 125.816424 
z
" clip-path="url(#p079ad8e3c2)" style="fill: #1f77b4"/>
   </g>
   <g id="patch_4">
    <path d="M 186.075741 109.346449 
L 201.764798 109.346449 
L 201.764798 37.87355 
L 186.075741 37.87355 
z
" clip-path="url(#p079ad8e3c2)" style="fill: #1f77b4"/>
   </g>
   <g id="patch_5">
    <path d="M 264.521027 109.346449 
L 280.210084 109.346449 
L 280.210084 141.988647 
L 264.521027 141.988647 
z
" clip-path="url(#p079ad8e3c2)" style="fill: #1f77b4"/>
   </g>
   <g id="patch_6">
    <path d="M 342.966313 109.346449 
L 358.65537 109.346449 
L 358.65537 170.324105 
L 342.966313 170.324105 
z
" clip-path="url(#p079ad8e3c2)" style="fill: #1f77b4"/>
   </g>
   <g id="patch_7">
    <path d="M 421.411599 109.346449 
L 437.100657 109.346449 
L 437.100657 195.955324 
L 421.411599 195.955324 
z
" clip-path="url(#p079ad8e3c2)" style="fill: #1f77b4"/>
   </g>
   <g id="patch_8">
    <path d="M 499.856886 109.346449 
L 515.545943 109.346449 
L 515.545943 220.932389 
L 499.856886 220.932389 
z
" clip-path="url(#p079ad8e3c2)" style="fill: #1f77b4"/>
   </g>
   <g id="patch_9">
    <path d="M 578.302172 109.346449 
L 593.991229 109.346449 
L 593.991229 244.7406 
L 578.302172 244.7406 
z
" clip-path="url(#p079ad8e3c2)" style="fill: #1f77b4"/>
   </g>
   <g id="patch_10">
    <path d="M 656.747458 109.346449 
L 672.436515 109.346449 
L 672.436515 266.006923 
L 656.747458 266.006923 
z
" clip-path="url(#p079ad8e3c2)" style="fill: #1f77b4"/>
   </g>
   <g id="patch_11">
    <path d="M 735.192744 109.346449 
L 750.881801 109.346449 
L 750.881801 297.736791 
L 735.192744 297.736791 
z
" clip-path="url(#p079ad8e3c2)" style="fill: #1f77b4"/>
   </g>
   <g id="patch_12">
    <path d="M 813.63803 109.346449 
L 829.327088 109.346449 
L 829.327088 315.089933 
L 813.63803 315.089933 
z
" clip-path="url(#p079ad8e3c2)" style="fill: #1f77b4"/>
   </g>
   <g id="patch_13">
    <path d="M 892.083316 109.346449 
L 907.772374 109.346449 
L 907.772374 338.319767 
L 892.083316 338.319767 
z
" clip-path="url(#p079ad8e3c2)" style="fill: #1f77b4"/>
   </g>
   <g id="patch_14">
    <path d="M 123.319512 109.346449 
L 139.008569 109.346449 
L 139.008569 153.87331 
L 123.319512 153.87331 
z
" clip-path="url(#p079ad8e3c2)" style="fill: #ff7f0e"/>
   </g>
   <g id="patch_15">
    <path d="M 201.764798 109.346449 
L 217.453855 109.346449 
L 217.453855 360.944557 
L 201.764798 360.944557 
z
" clip-path="url(#p079ad8e3c2)" style="fill: #ff7f0e"/>
   </g>
   <g id="patch_16">
    <path d="M 280.210084 109.346449 
L 295.899141 109.346449 
L 295.899141 177.729385 
L 280.210084 177.729385 
z
" clip-path="url(#p079ad8e3c2)" style="fill: #ff7f0e"/>
   </g>
   <g id="patch_17">
    <path d="M 358.65537 109.346449 
L 374.344428 109.346449 
L 374.344428 199.032967 
L 358.65537 199.032967 
z
" clip-path="url(#p079ad8e3c2)" style="fill: #ff7f0e"/>
   </g>
   <g id="patch_18">
    <path d="M 437.100657 109.346449 
L 452.789714 109.346449 
L 452.789714 221.283056 
L 437.100657 221.283056 
z
" clip-path="url(#p079ad8e3c2)" style="fill: #ff7f0e"/>
   </g>
   <g id="patch_19">
    <path d="M 515.545943 109.346449 
L 531.235 109.346449 
L 531.235 243.98992 
L 515.545943 243.98992 
z
" clip-path="url(#p079ad8e3c2)" style="fill: #ff7f0e"/>
   </g>
   <g id="patch_20">
    <path d="M 593.991229 109.346449 
L 609.680286 109.346449 
L 609.680286 265.297796 
L 593.991229 265.297796 
z
" clip-path="url(#p079ad8e3c2)" style="fill: #ff7f0e"/>
   </g>
   <g id="patch_21">
    <path d="M 672.436515 109.346449 
L 688.125572 109.346449 
L 688.125572 285.627879 
L 672.436515 285.627879 
z
" clip-path="url(#p079ad8e3c2)" style="fill: #ff7f0e"/>
   </g>
   <g id="patch_22">
    <path d="M 750.881801 109.346449 
L 766.570859 109.346449 
L 766.570859 306.30803 
L 750.881801 306.30803 
z
" clip-path="url(#p079ad8e3c2)" style="fill: #ff7f0e"/>
   </g>
   <g id="patch_23">
    <path d="M 829.327088 109.346449 
L 845.016145 109.346449 
L 845.016145 325.868472 
L 829.327088 325.868472 
z
" clip-path="url(#p079ad8e3c2)" style="fill: #ff7f0e"/>
   </g>
   <g id="patch_24">
    <path d="M 907.772374 109.346449 
L 923.461431 109.346449 
L 923.461431 343.41272 
L 907.772374 343.41272 
z
" clip-path="url(#p079ad8e3c2)" style="fill: #ff7f0e"/>
   </g>
   <g id="patch_25">
    <path d="M 139.008569 109.346449 
L 154.697626 109.346449 
L 154.697626 164.727716 
L 139.008569 164.727716 
z
" clip-path="url(#p079ad8e3c2)" style="fill: #2ca02c"/>
   </g>
   <g id="patch_26">
    <path d="M 217.453855 109.346449 
L 233.142912 109.346449 
L 233.142912 360.944557 
L 217.453855 360.944557 
z
" clip-path="url(#p079ad8e3c2)" style="fill: #2ca02c"/>
   </g>
   <g id="patch_27">
    <path d="M 295.899141 109.346449 
L 311.588199 109.346449 
L 311.588199 189.652212 
L 295.899141 189.652212 
z
" clip-path="url(#p079ad8e3c2)" style="fill: #2ca02c"/>
   </g>
   <g id="patch_28">
    <path d="M 374.344428 109.346449 
L 390.033485 109.346449 
L 390.033485 213.252346 
L 374.344428 213.252346 
z
" clip-path="url(#p079ad8e3c2)" style="fill: #2ca02c"/>
   </g>
   <g id="patch_29">
    <path d="M 452.789714 109.346449 
L 468.478771 109.346449 
L 468.478771 236.299348 
L 452.789714 236.299348 
z
" clip-path="url(#p079ad8e3c2)" style="fill: #2ca02c"/>
   </g>
   <g id="patch_30">
    <path d="M 531.235 109.346449 
L 546.924057 109.346449 
L 546.924057 258.051539 
L 531.235 258.051539 
z
" clip-path="url(#p079ad8e3c2)" style="fill: #2ca02c"/>
   </g>
   <g id="patch_31">
    <path d="M 609.680286 109.346449 
L 625.369343 109.346449 
L 625.369343 279.074373 
L 609.680286 279.074373 
z
" clip-path="url(#p079ad8e3c2)" style="fill: #2ca02c"/>
   </g>
   <g id="patch_32">
    <path d="M 688.125572 109.346449 
L 703.81463 109.346449 
L 703.81463 298.733478 
L 688.125572 298.733478 
z
" clip-path="url(#p079ad8e3c2)" style="fill: #2ca02c"/>
   </g>
   <g id="patch_33">
    <path d="M 766.570859 109.346449 
L 782.259916 109.346449 
L 782.259916 317.181614 
L 766.570859 317.181614 
z
" clip-path="url(#p079ad8e3c2)" style="fill: #2ca02c"/>
   </g>
   <g id="patch_34">
    <path d="M 845.016145 109.346449 
L 860.705202 109.346449 
L 860.705202 334.469073 
L 845.016145 334.469073 
z
" clip-path="url(#p079ad8e3c2)" style="fill: #2ca02c"/>
   </g>
   <g id="patch_35">
    <path d="M 923.461431 109.346449 
L 939.150488 109.346449 
L 939.150488 349.371391 
L 923.461431 349.371391 
z
" clip-path="url(#p079ad8e3c2)" style="fill: #2ca02c"/>
   </g>
   <g id="patch_36">
    <path d="M 154.697626 109.346449 
L 170.386684 109.346449 
L 170.386684 162.990089 
L 154.697626 162.990089 
z
" clip-path="url(#p079ad8e3c2)" style="fill: #d62728"/>
   </g>
   <g id="patch_37">
    <path d="M 233.142912 109.346449 
L 248.83197 109.346449 
L 248.83197 359.851636 
L 233.142912 359.851636 
z
" clip-path="url(#p079ad8e3c2)" style="fill: #d62728"/>
   </g>
   <g id="patch_38">
    <path d="M 311.588199 109.346449 
L 327.277256 109.346449 
L 327.277256 188.272386 
L 311.588199 188.272386 
z
" clip-path="url(#p079ad8e3c2)" style="fill: #d62728"/>
   </g>
   <g id="patch_39">
    <path d="M 390.033485 109.346449 
L 405.722542 109.346449 
L 405.722542 212.784113 
L 390.033485 212.784113 
z
" clip-path="url(#p079ad8e3c2)" style="fill: #d62728"/>
   </g>
   <g id="patch_40">
    <path d="M 468.478771 109.346449 
L 484.167828 109.346449 
L 484.167828 236.070748 
L 468.478771 236.070748 
z
" clip-path="url(#p079ad8e3c2)" style="fill: #d62728"/>
   </g>
   <g id="patch_41">
    <path d="M 546.924057 109.346449 
L 562.613114 109.346449 
L 562.613114 258.840095 
L 546.924057 258.840095 
z
" clip-path="url(#p079ad8e3c2)" style="fill: #d62728"/>
   </g>
   <g id="patch_42">
    <path d="M 625.369343 109.346449 
L 641.058401 109.346449 
L 641.058401 280.485149 
L 625.369343 280.485149 
z
" clip-path="url(#p079ad8e3c2)" style="fill: #d62728"/>
   </g>
   <g id="patch_43">
    <path d="M 703.81463 109.346449 
L 719.503687 109.346449 
L 719.503687 301.46373 
L 703.81463 301.46373 
z
" clip-path="url(#p079ad8e3c2)" style="fill: #d62728"/>
   </g>
   <g id="patch_44">
    <path d="M 782.259916 109.346449 
L 797.948973 109.346449 
L 797.948973 319.963162 
L 782.259916 319.963162 
z
" clip-path="url(#p079ad8e3c2)" style="fill: #d62728"/>
   </g>
   <g id="patch_45">
    <path d="M 860.705202 109.346449 
L 876.394259 109.346449 
L 876.394259 336.758064 
L 860.705202 336.758064 
z
" clip-path="url(#p079ad8e3c2)" style="fill: #d62728"/>
   </g>
   <g id="patch_46">
    <path d="M 939.150488 109.346449 
L 954.839545 109.346449 
L 954.839545 350.059966 
L 939.150488 350.059966 
z
" clip-path="url(#p079ad8e3c2)" style="fill: #d62728"/>
   </g>
   <g id="matplotlib.axis_1">
    <g id="xtick_1">
     <g id="line2d_1">
      <defs>
       <path id="m30b7d69b05" d="M 0 0 
L 0 3.5 
" style="stroke: #000000; stroke-width: 0.8"/>
      </defs>
      <g>
       <use xlink:href="#m30b7d69b05" x="139.008569" y="377.098107" style="stroke: #000000; stroke-width: 0.8"/>
      </g>
     </g>
     <g id="text_1">
      <!-- Baseline -->
      <g transform="translate(107.557785 419.451237) rotate(-45) scale(0.1 -0.1)">
       <defs>
        <path id="DejaVuSans-42" d="M 1259 2228 
L 1259 519 
L 2272 519 
Q 2781 519 3026 730 
Q 3272 941 3272 1375 
Q 3272 1813 3026 2020 
Q 2781 2228 2272 2228 
L 1259 2228 
z
M 1259 4147 
L 1259 2741 
L 2194 2741 
Q 2656 2741 2882 2914 
Q 3109 3088 3109 3444 
Q 3109 3797 2882 3972 
Q 2656 4147 2194 4147 
L 1259 4147 
z
M 628 4666 
L 2241 4666 
Q 2963 4666 3353 4366 
Q 3744 4066 3744 3513 
Q 3744 3084 3544 2831 
Q 3344 2578 2956 2516 
Q 3422 2416 3680 2098 
Q 3938 1781 3938 1306 
Q 3938 681 3513 340 
Q 3088 0 2303 0 
L 628 0 
L 628 4666 
z
" transform="scale(0.015625)"/>
        <path id="DejaVuSans-61" d="M 2194 1759 
Q 1497 1759 1228 1600 
Q 959 1441 959 1056 
Q 959 750 1161 570 
Q 1363 391 1709 391 
Q 2188 391 2477 730 
Q 2766 1069 2766 1631 
L 2766 1759 
L 2194 1759 
z
M 3341 1997 
L 3341 0 
L 2766 0 
L 2766 531 
Q 2569 213 2275 61 
Q 1981 -91 1556 -91 
Q 1019 -91 701 211 
Q 384 513 384 1019 
Q 384 1609 779 1909 
Q 1175 2209 1959 2209 
L 2766 2209 
L 2766 2266 
Q 2766 2663 2505 2880 
Q 2244 3097 1772 3097 
Q 1472 3097 1187 3025 
Q 903 2953 641 2809 
L 641 3341 
Q 956 3463 1253 3523 
Q 1550 3584 1831 3584 
Q 2591 3584 2966 3190 
Q 3341 2797 3341 1997 
z
" transform="scale(0.015625)"/>
        <path id="DejaVuSans-73" d="M 2834 3397 
L 2834 2853 
Q 2591 2978 2328 3040 
Q 2066 3103 1784 3103 
Q 1356 3103 1142 2972 
Q 928 2841 928 2578 
Q 928 2378 1081 2264 
Q 1234 2150 1697 2047 
L 1894 2003 
Q 2506 1872 2764 1633 
Q 3022 1394 3022 966 
Q 3022 478 2636 193 
Q 2250 -91 1575 -91 
Q 1294 -91 989 -36 
Q 684 19 347 128 
L 347 722 
Q 666 556 975 473 
Q 1284 391 1588 391 
Q 1994 391 2212 530 
Q 2431 669 2431 922 
Q 2431 1156 2273 1281 
Q 2116 1406 1581 1522 
L 1381 1569 
Q 847 1681 609 1914 
Q 372 2147 372 2553 
Q 372 3047 722 3315 
Q 1072 3584 1716 3584 
Q 2034 3584 2315 3537 
Q 2597 3491 2834 3397 
z
" transform="scale(0.015625)"/>
        <path id="DejaVuSans-65" d="M 3597 1894 
L 3597 1613 
L 953 1613 
Q 991 1019 1311 708 
Q 1631 397 2203 397 
Q 2534 397 2845 478 
Q 3156 559 3463 722 
L 3463 178 
Q 3153 47 2828 -22 
Q 2503 -91 2169 -91 
Q 1331 -91 842 396 
Q 353 884 353 1716 
Q 353 2575 817 3079 
Q 1281 3584 2069 3584 
Q 2775 3584 3186 3129 
Q 3597 2675 3597 1894 
z
M 3022 2063 
Q 3016 2534 2758 2815 
Q 2500 3097 2075 3097 
Q 1594 3097 1305 2825 
Q 1016 2553 972 2059 
L 3022 2063 
z
" transform="scale(0.015625)"/>
        <path id="DejaVuSans-6c" d="M 603 4863 
L 1178 4863 
L 1178 0 
L 603 0 
L 603 4863 
z
" transform="scale(0.015625)"/>
        <path id="DejaVuSans-69" d="M 603 3500 
L 1178 3500 
L 1178 0 
L 603 0 
L 603 3500 
z
M 603 4863 
L 1178 4863 
L 1178 4134 
L 603 4134 
L 603 4863 
z
" transform="scale(0.015625)"/>
        <path id="DejaVuSans-6e" d="M 3513 2113 
L 3513 0 
L 2938 0 
L 2938 2094 
Q 2938 2591 2744 2837 
Q 2550 3084 2163 3084 
Q 1697 3084 1428 2787 
Q 1159 2491 1159 1978 
L 1159 0 
L 581 0 
L 581 3500 
L 1159 3500 
L 1159 2956 
Q 1366 3272 1645 3428 
Q 1925 3584 2291 3584 
Q 2894 3584 3203 3211 
Q 3513 2838 3513 2113 
z
" transform="scale(0.015625)"/>
       </defs>
       <use xlink:href="#DejaVuSans-42"/>
       <use xlink:href="#DejaVuSans-61" x="68.603516"/>
       <use xlink:href="#DejaVuSans-73" x="129.882812"/>
       <use xlink:href="#DejaVuSans-65" x="181.982422"/>
       <use xlink:href="#DejaVuSans-6c" x="243.505859"/>
       <use xlink:href="#DejaVuSans-69" x="271.289062"/>
       <use xlink:href="#DejaVuSans-6e" x="299.072266"/>
       <use xlink:href="#DejaVuSans-65" x="362.451172"/>
      </g>
     </g>
    </g>
    <g id="xtick_2">
     <g id="line2d_2">
      <g>
       <use xlink:href="#m30b7d69b05" x="217.453855" y="377.098107" style="stroke: #000000; stroke-width: 0.8"/>
      </g>
     </g>
     <g id="text_2">
      <!-- S0 -->
      <g transform="translate(206.995304 398.459004) rotate(-45) scale(0.1 -0.1)">
       <defs>
        <path id="DejaVuSans-53" d="M 3425 4513 
L 3425 3897 
Q 3066 4069 2747 4153 
Q 2428 4238 2131 4238 
Q 1616 4238 1336 4038 
Q 1056 3838 1056 3469 
Q 1056 3159 1242 3001 
Q 1428 2844 1947 2747 
L 2328 2669 
Q 3034 2534 3370 2195 
Q 3706 1856 3706 1288 
Q 3706 609 3251 259 
Q 2797 -91 1919 -91 
Q 1588 -91 1214 -16 
Q 841 59 441 206 
L 441 856 
Q 825 641 1194 531 
Q 1563 422 1919 422 
Q 2459 422 2753 634 
Q 3047 847 3047 1241 
Q 3047 1584 2836 1778 
Q 2625 1972 2144 2069 
L 1759 2144 
Q 1053 2284 737 2584 
Q 422 2884 422 3419 
Q 422 4038 858 4394 
Q 1294 4750 2059 4750 
Q 2388 4750 2728 4690 
Q 3069 4631 3425 4513 
z
" transform="scale(0.015625)"/>
        <path id="DejaVuSans-30" d="M 2034 4250 
Q 1547 4250 1301 3770 
Q 1056 3291 1056 2328 
Q 1056 1369 1301 889 
Q 1547 409 2034 409 
Q 2525 409 2770 889 
Q 3016 1369 3016 2328 
Q 3016 3291 2770 3770 
Q 2525 4250 2034 4250 
z
M 2034 4750 
Q 2819 4750 3233 4129 
Q 3647 3509 3647 2328 
Q 3647 1150 3233 529 
Q 2819 -91 2034 -91 
Q 1250 -91 836 529 
Q 422 1150 422 2328 
Q 422 3509 836 4129 
Q 1250 4750 2034 4750 
z
" transform="scale(0.015625)"/>
       </defs>
       <use xlink:href="#DejaVuSans-53"/>
       <use xlink:href="#DejaVuSans-30" x="63.476562"/>
      </g>
     </g>
    </g>
    <g id="xtick_3">
     <g id="line2d_3">
      <g>
       <use xlink:href="#m30b7d69b05" x="295.899141" y="377.098107" style="stroke: #000000; stroke-width: 0.8"/>
      </g>
     </g>
     <g id="text_3">
      <!-- S1 -->
      <g transform="translate(285.44059 398.459004) rotate(-45) scale(0.1 -0.1)">
       <defs>
        <path id="DejaVuSans-31" d="M 794 531 
L 1825 531 
L 1825 4091 
L 703 3866 
L 703 4441 
L 1819 4666 
L 2450 4666 
L 2450 531 
L 3481 531 
L 3481 0 
L 794 0 
L 794 531 
z
" transform="scale(0.015625)"/>
       </defs>
       <use xlink:href="#DejaVuSans-53"/>
       <use xlink:href="#DejaVuSans-31" x="63.476562"/>
      </g>
     </g>
    </g>
    <g id="xtick_4">
     <g id="line2d_4">
      <g>
       <use xlink:href="#m30b7d69b05" x="374.344428" y="377.098107" style="stroke: #000000; stroke-width: 0.8"/>
      </g>
     </g>
     <g id="text_4">
      <!-- S2 -->
      <g transform="translate(363.885876 398.459004) rotate(-45) scale(0.1 -0.1)">
       <defs>
        <path id="DejaVuSans-32" d="M 1228 531 
L 3431 531 
L 3431 0 
L 469 0 
L 469 531 
Q 828 903 1448 1529 
Q 2069 2156 2228 2338 
Q 2531 2678 2651 2914 
Q 2772 3150 2772 3378 
Q 2772 3750 2511 3984 
Q 2250 4219 1831 4219 
Q 1534 4219 1204 4116 
Q 875 4013 500 3803 
L 500 4441 
Q 881 4594 1212 4672 
Q 1544 4750 1819 4750 
Q 2544 4750 2975 4387 
Q 3406 4025 3406 3419 
Q 3406 3131 3298 2873 
Q 3191 2616 2906 2266 
Q 2828 2175 2409 1742 
Q 1991 1309 1228 531 
z
" transform="scale(0.015625)"/>
       </defs>
       <use xlink:href="#DejaVuSans-53"/>
       <use xlink:href="#DejaVuSans-32" x="63.476562"/>
      </g>
     </g>
    </g>
    <g id="xtick_5">
     <g id="line2d_5">
      <g>
       <use xlink:href="#m30b7d69b05" x="452.789714" y="377.098107" style="stroke: #000000; stroke-width: 0.8"/>
      </g>
     </g>
     <g id="text_5">
      <!-- S3 -->
      <g transform="translate(442.331163 398.459004) rotate(-45) scale(0.1 -0.1)">
       <defs>
        <path id="DejaVuSans-33" d="M 2597 2516 
Q 3050 2419 3304 2112 
Q 3559 1806 3559 1356 
Q 3559 666 3084 287 
Q 2609 -91 1734 -91 
Q 1441 -91 1130 -33 
Q 819 25 488 141 
L 488 750 
Q 750 597 1062 519 
Q 1375 441 1716 441 
Q 2309 441 2620 675 
Q 2931 909 2931 1356 
Q 2931 1769 2642 2001 
Q 2353 2234 1838 2234 
L 1294 2234 
L 1294 2753 
L 1863 2753 
Q 2328 2753 2575 2939 
Q 2822 3125 2822 3475 
Q 2822 3834 2567 4026 
Q 2313 4219 1838 4219 
Q 1578 4219 1281 4162 
Q 984 4106 628 3988 
L 628 4550 
Q 988 4650 1302 4700 
Q 1616 4750 1894 4750 
Q 2613 4750 3031 4423 
Q 3450 4097 3450 3541 
Q 3450 3153 3228 2886 
Q 3006 2619 2597 2516 
z
" transform="scale(0.015625)"/>
       </defs>
       <use xlink:href="#DejaVuSans-53"/>
       <use xlink:href="#DejaVuSans-33" x="63.476562"/>
      </g>
     </g>
    </g>
    <g id="xtick_6">
     <g id="line2d_6">
      <g>
       <use xlink:href="#m30b7d69b05" x="531.235" y="377.098107" style="stroke: #000000; stroke-width: 0.8"/>
      </g>
     </g>
     <g id="text_6">
      <!-- S4 -->
      <g transform="translate(520.776449 398.459004) rotate(-45) scale(0.1 -0.1)">
       <defs>
        <path id="DejaVuSans-34" d="M 2419 4116 
L 825 1625 
L 2419 1625 
L 2419 4116 
z
M 2253 4666 
L 3047 4666 
L 3047 1625 
L 3713 1625 
L 3713 1100 
L 3047 1100 
L 3047 0 
L 2419 0 
L 2419 1100 
L 313 1100 
L 313 1709 
L 2253 4666 
z
" transform="scale(0.015625)"/>
       </defs>
       <use xlink:href="#DejaVuSans-53"/>
       <use xlink:href="#DejaVuSans-34" x="63.476562"/>
      </g>
     </g>
    </g>
    <g id="xtick_7">
     <g id="line2d_7">
      <g>
       <use xlink:href="#m30b7d69b05" x="609.680286" y="377.098107" style="stroke: #000000; stroke-width: 0.8"/>
      </g>
     </g>
     <g id="text_7">
      <!-- S5 -->
      <g transform="translate(599.221735 398.459004) rotate(-45) scale(0.1 -0.1)">
       <defs>
        <path id="DejaVuSans-35" d="M 691 4666 
L 3169 4666 
L 3169 4134 
L 1269 4134 
L 1269 2991 
Q 1406 3038 1543 3061 
Q 1681 3084 1819 3084 
Q 2600 3084 3056 2656 
Q 3513 2228 3513 1497 
Q 3513 744 3044 326 
Q 2575 -91 1722 -91 
Q 1428 -91 1123 -41 
Q 819 9 494 109 
L 494 744 
Q 775 591 1075 516 
Q 1375 441 1709 441 
Q 2250 441 2565 725 
Q 2881 1009 2881 1497 
Q 2881 1984 2565 2268 
Q 2250 2553 1709 2553 
Q 1456 2553 1204 2497 
Q 953 2441 691 2322 
L 691 4666 
z
" transform="scale(0.015625)"/>
       </defs>
       <use xlink:href="#DejaVuSans-53"/>
       <use xlink:href="#DejaVuSans-35" x="63.476562"/>
      </g>
     </g>
    </g>
    <g id="xtick_8">
     <g id="line2d_8">
      <g>
       <use xlink:href="#m30b7d69b05" x="688.125572" y="377.098107" style="stroke: #000000; stroke-width: 0.8"/>
      </g>
     </g>
     <g id="text_8">
      <!-- S6 -->
      <g transform="translate(677.667021 398.459004) rotate(-45) scale(0.1 -0.1)">
       <defs>
        <path id="DejaVuSans-36" d="M 2113 2584 
Q 1688 2584 1439 2293 
Q 1191 2003 1191 1497 
Q 1191 994 1439 701 
Q 1688 409 2113 409 
Q 2538 409 2786 701 
Q 3034 994 3034 1497 
Q 3034 2003 2786 2293 
Q 2538 2584 2113 2584 
z
M 3366 4563 
L 3366 3988 
Q 3128 4100 2886 4159 
Q 2644 4219 2406 4219 
Q 1781 4219 1451 3797 
Q 1122 3375 1075 2522 
Q 1259 2794 1537 2939 
Q 1816 3084 2150 3084 
Q 2853 3084 3261 2657 
Q 3669 2231 3669 1497 
Q 3669 778 3244 343 
Q 2819 -91 2113 -91 
Q 1303 -91 875 529 
Q 447 1150 447 2328 
Q 447 3434 972 4092 
Q 1497 4750 2381 4750 
Q 2619 4750 2861 4703 
Q 3103 4656 3366 4563 
z
" transform="scale(0.015625)"/>
       </defs>
       <use xlink:href="#DejaVuSans-53"/>
       <use xlink:href="#DejaVuSans-36" x="63.476562"/>
      </g>
     </g>
    </g>
    <g id="xtick_9">
     <g id="line2d_9">
      <g>
       <use xlink:href="#m30b7d69b05" x="766.570859" y="377.098107" style="stroke: #000000; stroke-width: 0.8"/>
      </g>
     </g>
     <g id="text_9">
      <!-- S7 -->
      <g transform="translate(756.112307 398.459004) rotate(-45) scale(0.1 -0.1)">
       <defs>
        <path id="DejaVuSans-37" d="M 525 4666 
L 3525 4666 
L 3525 4397 
L 1831 0 
L 1172 0 
L 2766 4134 
L 525 4134 
L 525 4666 
z
" transform="scale(0.015625)"/>
       </defs>
       <use xlink:href="#DejaVuSans-53"/>
       <use xlink:href="#DejaVuSans-37" x="63.476562"/>
      </g>
     </g>
    </g>
    <g id="xtick_10">
     <g id="line2d_10">
      <g>
       <use xlink:href="#m30b7d69b05" x="845.016145" y="377.098107" style="stroke: #000000; stroke-width: 0.8"/>
      </g>
     </g>
     <g id="text_10">
      <!-- S8 -->
      <g transform="translate(834.557594 398.459004) rotate(-45) scale(0.1 -0.1)">
       <defs>
        <path id="DejaVuSans-38" d="M 2034 2216 
Q 1584 2216 1326 1975 
Q 1069 1734 1069 1313 
Q 1069 891 1326 650 
Q 1584 409 2034 409 
Q 2484 409 2743 651 
Q 3003 894 3003 1313 
Q 3003 1734 2745 1975 
Q 2488 2216 2034 2216 
z
M 1403 2484 
Q 997 2584 770 2862 
Q 544 3141 544 3541 
Q 544 4100 942 4425 
Q 1341 4750 2034 4750 
Q 2731 4750 3128 4425 
Q 3525 4100 3525 3541 
Q 3525 3141 3298 2862 
Q 3072 2584 2669 2484 
Q 3125 2378 3379 2068 
Q 3634 1759 3634 1313 
Q 3634 634 3220 271 
Q 2806 -91 2034 -91 
Q 1263 -91 848 271 
Q 434 634 434 1313 
Q 434 1759 690 2068 
Q 947 2378 1403 2484 
z
M 1172 3481 
Q 1172 3119 1398 2916 
Q 1625 2713 2034 2713 
Q 2441 2713 2670 2916 
Q 2900 3119 2900 3481 
Q 2900 3844 2670 4047 
Q 2441 4250 2034 4250 
Q 1625 4250 1398 4047 
Q 1172 3844 1172 3481 
z
" transform="scale(0.015625)"/>
       </defs>
       <use xlink:href="#DejaVuSans-53"/>
       <use xlink:href="#DejaVuSans-38" x="63.476562"/>
      </g>
     </g>
    </g>
    <g id="xtick_11">
     <g id="line2d_11">
      <g>
       <use xlink:href="#m30b7d69b05" x="923.461431" y="377.098107" style="stroke: #000000; stroke-width: 0.8"/>
      </g>
     </g>
     <g id="text_11">
      <!-- S9 -->
      <g transform="translate(913.00288 398.459004) rotate(-45) scale(0.1 -0.1)">
       <defs>
        <path id="DejaVuSans-39" d="M 703 97 
L 703 672 
Q 941 559 1184 500 
Q 1428 441 1663 441 
Q 2288 441 2617 861 
Q 2947 1281 2994 2138 
Q 2813 1869 2534 1725 
Q 2256 1581 1919 1581 
Q 1219 1581 811 2004 
Q 403 2428 403 3163 
Q 403 3881 828 4315 
Q 1253 4750 1959 4750 
Q 2769 4750 3195 4129 
Q 3622 3509 3622 2328 
Q 3622 1225 3098 567 
Q 2575 -91 1691 -91 
Q 1453 -91 1209 -44 
Q 966 3 703 97 
z
M 1959 2075 
Q 2384 2075 2632 2365 
Q 2881 2656 2881 3163 
Q 2881 3666 2632 3958 
Q 2384 4250 1959 4250 
Q 1534 4250 1286 3958 
Q 1038 3666 1038 3163 
Q 1038 2656 1286 2365 
Q 1534 2075 1959 2075 
z
" transform="scale(0.015625)"/>
       </defs>
       <use xlink:href="#DejaVuSans-53"/>
       <use xlink:href="#DejaVuSans-39" x="63.476562"/>
      </g>
     </g>
    </g>
   </g>
   <g id="matplotlib.axis_2">
    <g id="ytick_1">
     <g id="line2d_12">
      <defs>
       <path id="m3906a2edfa" d="M 0 0 
L -3.5 0 
" style="stroke: #000000; stroke-width: 0.8"/>
      </defs>
      <g>
       <use xlink:href="#m3906a2edfa" x="65.27" y="351.851199" style="stroke: #000000; stroke-width: 0.8"/>
      </g>
     </g>
     <g id="text_12">
      <!-- −1.50 -->
      <g transform="translate(27.624688 355.650418) scale(0.1 -0.1)">
       <defs>
        <path id="DejaVuSans-2212" d="M 678 2272 
L 4684 2272 
L 4684 1741 
L 678 1741 
L 678 2272 
z
" transform="scale(0.015625)"/>
        <path id="DejaVuSans-2e" d="M 684 794 
L 1344 794 
L 1344 0 
L 684 0 
L 684 794 
z
" transform="scale(0.015625)"/>
       </defs>
       <use xlink:href="#DejaVuSans-2212"/>
       <use xlink:href="#DejaVuSans-31" x="83.789062"/>
       <use xlink:href="#DejaVuSans-2e" x="147.412109"/>
       <use xlink:href="#DejaVuSans-35" x="179.199219"/>
       <use xlink:href="#DejaVuSans-30" x="242.822266"/>
      </g>
     </g>
    </g>
    <g id="ytick_2">
     <g id="line2d_13">
      <g>
       <use xlink:href="#m3906a2edfa" x="65.27" y="311.433741" style="stroke: #000000; stroke-width: 0.8"/>
      </g>
     </g>
     <g id="text_13">
      <!-- −1.25 -->
      <g transform="translate(27.624688 315.23296) scale(0.1 -0.1)">
       <use xlink:href="#DejaVuSans-2212"/>
       <use xlink:href="#DejaVuSans-31" x="83.789062"/>
       <use xlink:href="#DejaVuSans-2e" x="147.412109"/>
       <use xlink:href="#DejaVuSans-32" x="179.199219"/>
       <use xlink:href="#DejaVuSans-35" x="242.822266"/>
      </g>
     </g>
    </g>
    <g id="ytick_3">
     <g id="line2d_14">
      <g>
       <use xlink:href="#m3906a2edfa" x="65.27" y="271.016282" style="stroke: #000000; stroke-width: 0.8"/>
      </g>
     </g>
     <g id="text_14">
      <!-- −1.00 -->
      <g transform="translate(27.624688 274.815501) scale(0.1 -0.1)">
       <use xlink:href="#DejaVuSans-2212"/>
       <use xlink:href="#DejaVuSans-31" x="83.789062"/>
       <use xlink:href="#DejaVuSans-2e" x="147.412109"/>
       <use xlink:href="#DejaVuSans-30" x="179.199219"/>
       <use xlink:href="#DejaVuSans-30" x="242.822266"/>
      </g>
     </g>
    </g>
    <g id="ytick_4">
     <g id="line2d_15">
      <g>
       <use xlink:href="#m3906a2edfa" x="65.27" y="230.598824" style="stroke: #000000; stroke-width: 0.8"/>
      </g>
     </g>
     <g id="text_15">
      <!-- −0.75 -->
      <g transform="translate(27.624688 234.398043) scale(0.1 -0.1)">
       <use xlink:href="#DejaVuSans-2212"/>
       <use xlink:href="#DejaVuSans-30" x="83.789062"/>
       <use xlink:href="#DejaVuSans-2e" x="147.412109"/>
       <use xlink:href="#DejaVuSans-37" x="179.199219"/>
       <use xlink:href="#DejaVuSans-35" x="242.822266"/>
      </g>
     </g>
    </g>
    <g id="ytick_5">
     <g id="line2d_16">
      <g>
       <use xlink:href="#m3906a2edfa" x="65.27" y="190.181365" style="stroke: #000000; stroke-width: 0.8"/>
      </g>
     </g>
     <g id="text_16">
      <!-- −0.50 -->
      <g transform="translate(27.624688 193.980584) scale(0.1 -0.1)">
       <use xlink:href="#DejaVuSans-2212"/>
       <use xlink:href="#DejaVuSans-30" x="83.789062"/>
       <use xlink:href="#DejaVuSans-2e" x="147.412109"/>
       <use xlink:href="#DejaVuSans-35" x="179.199219"/>
       <use xlink:href="#DejaVuSans-30" x="242.822266"/>
      </g>
     </g>
    </g>
    <g id="ytick_6">
     <g id="line2d_17">
      <g>
       <use xlink:href="#m3906a2edfa" x="65.27" y="149.763907" style="stroke: #000000; stroke-width: 0.8"/>
      </g>
     </g>
     <g id="text_17">
      <!-- −0.25 -->
      <g transform="translate(27.624688 153.563126) scale(0.1 -0.1)">
       <use xlink:href="#DejaVuSans-2212"/>
       <use xlink:href="#DejaVuSans-30" x="83.789062"/>
       <use xlink:href="#DejaVuSans-2e" x="147.412109"/>
       <use xlink:href="#DejaVuSans-32" x="179.199219"/>
       <use xlink:href="#DejaVuSans-35" x="242.822266"/>
      </g>
     </g>
    </g>
    <g id="ytick_7">
     <g id="line2d_18">
      <g>
       <use xlink:href="#m3906a2edfa" x="65.27" y="109.346449" style="stroke: #000000; stroke-width: 0.8"/>
      </g>
     </g>
     <g id="text_18">
      <!-- 0.00 -->
      <g transform="translate(36.004375 113.145667) scale(0.1 -0.1)">
       <use xlink:href="#DejaVuSans-30"/>
       <use xlink:href="#DejaVuSans-2e" x="63.623047"/>
       <use xlink:href="#DejaVuSans-30" x="95.410156"/>
       <use xlink:href="#DejaVuSans-30" x="159.033203"/>
      </g>
     </g>
    </g>
    <g id="ytick_8">
     <g id="line2d_19">
      <g>
       <use xlink:href="#m3906a2edfa" x="65.27" y="68.92899" style="stroke: #000000; stroke-width: 0.8"/>
      </g>
     </g>
     <g id="text_19">
      <!-- 0.25 -->
      <g transform="translate(36.004375 72.728209) scale(0.1 -0.1)">
       <use xlink:href="#DejaVuSans-30"/>
       <use xlink:href="#DejaVuSans-2e" x="63.623047"/>
       <use xlink:href="#DejaVuSans-32" x="95.410156"/>
       <use xlink:href="#DejaVuSans-35" x="159.033203"/>
      </g>
     </g>
    </g>
    <g id="ytick_9">
     <g id="line2d_20">
      <g>
       <use xlink:href="#m3906a2edfa" x="65.27" y="28.511532" style="stroke: #000000; stroke-width: 0.8"/>
      </g>
     </g>
     <g id="text_20">
      <!-- 0.50 -->
      <g transform="translate(36.004375 32.31075) scale(0.1 -0.1)">
       <use xlink:href="#DejaVuSans-30"/>
       <use xlink:href="#DejaVuSans-2e" x="63.623047"/>
       <use xlink:href="#DejaVuSans-35" x="95.410156"/>
       <use xlink:href="#DejaVuSans-30" x="159.033203"/>
      </g>
     </g>
    </g>
    <g id="text_21">
     <!-- Net Emissions (tCO2e) -->
     <g transform="translate(21.129063 267.031866) rotate(-90) scale(0.12 -0.12)">
      <defs>
       <path id="DejaVuSans-4e" d="M 628 4666 
L 1478 4666 
L 3547 763 
L 3547 4666 
L 4159 4666 
L 4159 0 
L 3309 0 
L 1241 3903 
L 1241 0 
L 628 0 
L 628 4666 
z
" transform="scale(0.015625)"/>
       <path id="DejaVuSans-74" d="M 1172 4494 
L 1172 3500 
L 2356 3500 
L 2356 3053 
L 1172 3053 
L 1172 1153 
Q 1172 725 1289 603 
Q 1406 481 1766 481 
L 2356 481 
L 2356 0 
L 1766 0 
Q 1100 0 847 248 
Q 594 497 594 1153 
L 594 3053 
L 172 3053 
L 172 3500 
L 594 3500 
L 594 4494 
L 1172 4494 
z
" transform="scale(0.015625)"/>
       <path id="DejaVuSans-20" transform="scale(0.015625)"/>
       <path id="DejaVuSans-45" d="M 628 4666 
L 3578 4666 
L 3578 4134 
L 1259 4134 
L 1259 2753 
L 3481 2753 
L 3481 2222 
L 1259 2222 
L 1259 531 
L 3634 531 
L 3634 0 
L 628 0 
L 628 4666 
z
" transform="scale(0.015625)"/>
       <path id="DejaVuSans-6d" d="M 3328 2828 
Q 3544 3216 3844 3400 
Q 4144 3584 4550 3584 
Q 5097 3584 5394 3201 
Q 5691 2819 5691 2113 
L 5691 0 
L 5113 0 
L 5113 2094 
Q 5113 2597 4934 2840 
Q 4756 3084 4391 3084 
Q 3944 3084 3684 2787 
Q 3425 2491 3425 1978 
L 3425 0 
L 2847 0 
L 2847 2094 
Q 2847 2600 2669 2842 
Q 2491 3084 2119 3084 
Q 1678 3084 1418 2786 
Q 1159 2488 1159 1978 
L 1159 0 
L 581 0 
L 581 3500 
L 1159 3500 
L 1159 2956 
Q 1356 3278 1631 3431 
Q 1906 3584 2284 3584 
Q 2666 3584 2933 3390 
Q 3200 3197 3328 2828 
z
" transform="scale(0.015625)"/>
       <path id="DejaVuSans-6f" d="M 1959 3097 
Q 1497 3097 1228 2736 
Q 959 2375 959 1747 
Q 959 1119 1226 758 
Q 1494 397 1959 397 
Q 2419 397 2687 759 
Q 2956 1122 2956 1747 
Q 2956 2369 2687 2733 
Q 2419 3097 1959 3097 
z
M 1959 3584 
Q 2709 3584 3137 3096 
Q 3566 2609 3566 1747 
Q 3566 888 3137 398 
Q 2709 -91 1959 -91 
Q 1206 -91 779 398 
Q 353 888 353 1747 
Q 353 2609 779 3096 
Q 1206 3584 1959 3584 
z
" transform="scale(0.015625)"/>
       <path id="DejaVuSans-28" d="M 1984 4856 
Q 1566 4138 1362 3434 
Q 1159 2731 1159 2009 
Q 1159 1288 1364 580 
Q 1569 -128 1984 -844 
L 1484 -844 
Q 1016 -109 783 600 
Q 550 1309 550 2009 
Q 550 2706 781 3412 
Q 1013 4119 1484 4856 
L 1984 4856 
z
" transform="scale(0.015625)"/>
       <path id="DejaVuSans-43" d="M 4122 4306 
L 4122 3641 
Q 3803 3938 3442 4084 
Q 3081 4231 2675 4231 
Q 1875 4231 1450 3742 
Q 1025 3253 1025 2328 
Q 1025 1406 1450 917 
Q 1875 428 2675 428 
Q 3081 428 3442 575 
Q 3803 722 4122 1019 
L 4122 359 
Q 3791 134 3420 21 
Q 3050 -91 2638 -91 
Q 1578 -91 968 557 
Q 359 1206 359 2328 
Q 359 3453 968 4101 
Q 1578 4750 2638 4750 
Q 3056 4750 3426 4639 
Q 3797 4528 4122 4306 
z
" transform="scale(0.015625)"/>
       <path id="DejaVuSans-4f" d="M 2522 4238 
Q 1834 4238 1429 3725 
Q 1025 3213 1025 2328 
Q 1025 1447 1429 934 
Q 1834 422 2522 422 
Q 3209 422 3611 934 
Q 4013 1447 4013 2328 
Q 4013 3213 3611 3725 
Q 3209 4238 2522 4238 
z
M 2522 4750 
Q 3503 4750 4090 4092 
Q 4678 3434 4678 2328 
Q 4678 1225 4090 567 
Q 3503 -91 2522 -91 
Q 1538 -91 948 565 
Q 359 1222 359 2328 
Q 359 3434 948 4092 
Q 1538 4750 2522 4750 
z
" transform="scale(0.015625)"/>
       <path id="DejaVuSans-29" d="M 513 4856 
L 1013 4856 
Q 1481 4119 1714 3412 
Q 1947 2706 1947 2009 
Q 1947 1309 1714 600 
Q 1481 -109 1013 -844 
L 513 -844 
Q 928 -128 1133 580 
Q 1338 1288 1338 2009 
Q 1338 2731 1133 3434 
Q 928 4138 513 4856 
z
" transform="scale(0.015625)"/>
      </defs>
      <use xlink:href="#DejaVuSans-4e"/>
      <use xlink:href="#DejaVuSans-65" x="74.804688"/>
      <use xlink:href="#DejaVuSans-74" x="136.328125"/>
      <use xlink:href="#DejaVuSans-20" x="175.537109"/>
      <use xlink:href="#DejaVuSans-45" x="207.324219"/>
      <use xlink:href="#DejaVuSans-6d" x="270.507812"/>
      <use xlink:href="#DejaVuSans-69" x="367.919922"/>
      <use xlink:href="#DejaVuSans-73" x="395.703125"/>
      <use xlink:href="#DejaVuSans-73" x="447.802734"/>
      <use xlink:href="#DejaVuSans-69" x="499.902344"/>
      <use xlink:href="#DejaVuSans-6f" x="527.685547"/>
      <use xlink:href="#DejaVuSans-6e" x="588.867188"/>
      <use xlink:href="#DejaVuSans-73" x="652.246094"/>
      <use xlink:href="#DejaVuSans-20" x="704.345703"/>
      <use xlink:href="#DejaVuSans-28" x="736.132812"/>
      <use xlink:href="#DejaVuSans-74" x="775.146484"/>
      <use xlink:href="#DejaVuSans-43" x="814.355469"/>
      <use xlink:href="#DejaVuSans-4f" x="884.179688"/>
      <use xlink:href="#DejaVuSans-32" x="962.890625"/>
      <use xlink:href="#DejaVuSans-65" x="1026.513672"/>
      <use xlink:href="#DejaVuSans-29" x="1088.037109"/>
     </g>
    </g>
    <g id="text_22">
     <!-- 1e8 -->
     <g transform="translate(65.27 18.72) scale(0.1 -0.1)">
      <use xlink:href="#DejaVuSans-31"/>
      <use xlink:href="#DejaVuSans-65" x="63.623047"/>
      <use xlink:href="#DejaVuSans-38" x="125.146484"/>
     </g>
    </g>
   </g>
   <g id="patch_47">
    <path d="M 65.27 377.098107 
L 65.27 21.72 
" style="fill: none; stroke: #000000; stroke-width: 0.8; stroke-linejoin: miter; stroke-linecap: square"/>
   </g>
   <g id="patch_48">
    <path d="M 997.2 377.098107 
L 997.2 21.72 
" style="fill: none; stroke: #000000; stroke-width: 0.8; stroke-linejoin: miter; stroke-linecap: square"/>
   </g>
   <g id="patch_49">
    <path d="M 65.27 377.098107 
L 997.2 377.098107 
" style="fill: none; stroke: #000000; stroke-width: 0.8; stroke-linejoin: miter; stroke-linecap: square"/>
   </g>
   <g id="patch_50">
    <path d="M 65.27 21.72 
L 997.2 21.72 
" style="fill: none; stroke: #000000; stroke-width: 0.8; stroke-linejoin: miter; stroke-linecap: square"/>
   </g>
   <g id="legend_1">
    <g id="patch_51">
     <path d="M 927.32625 96.940625 
L 990.9 96.940625 
Q 992.7 96.940625 992.7 95.140625 
L 992.7 28.02 
Q 992.7 26.22 990.9 26.22 
L 927.32625 26.22 
Q 925.52625 26.22 925.52625 28.02 
L 925.52625 95.140625 
Q 925.52625 96.940625 927.32625 96.940625 
z
" style="fill: #ffffff; opacity: 0.8; stroke: #cccccc; stroke-linejoin: miter"/>
    </g>
    <g id="text_23">
     <!-- Objectives -->
     <g transform="translate(932.798281 37.418437) scale(0.1 -0.1)">
      <defs>
       <path id="DejaVuSans-62" d="M 3116 1747 
Q 3116 2381 2855 2742 
Q 2594 3103 2138 3103 
Q 1681 3103 1420 2742 
Q 1159 2381 1159 1747 
Q 1159 1113 1420 752 
Q 1681 391 2138 391 
Q 2594 391 2855 752 
Q 3116 1113 3116 1747 
z
M 1159 2969 
Q 1341 3281 1617 3432 
Q 1894 3584 2278 3584 
Q 2916 3584 3314 3078 
Q 3713 2572 3713 1747 
Q 3713 922 3314 415 
Q 2916 -91 2278 -91 
Q 1894 -91 1617 61 
Q 1341 213 1159 525 
L 1159 0 
L 581 0 
L 581 4863 
L 1159 4863 
L 1159 2969 
z
" transform="scale(0.015625)"/>
       <path id="DejaVuSans-6a" d="M 603 3500 
L 1178 3500 
L 1178 -63 
Q 1178 -731 923 -1031 
Q 669 -1331 103 -1331 
L -116 -1331 
L -116 -844 
L 38 -844 
Q 366 -844 484 -692 
Q 603 -541 603 -63 
L 603 3500 
z
M 603 4863 
L 1178 4863 
L 1178 4134 
L 603 4134 
L 603 4863 
z
" transform="scale(0.015625)"/>
       <path id="DejaVuSans-63" d="M 3122 3366 
L 3122 2828 
Q 2878 2963 2633 3030 
Q 2388 3097 2138 3097 
Q 1578 3097 1268 2742 
Q 959 2388 959 1747 
Q 959 1106 1268 751 
Q 1578 397 2138 397 
Q 2388 397 2633 464 
Q 2878 531 3122 666 
L 3122 134 
Q 2881 22 2623 -34 
Q 2366 -91 2075 -91 
Q 1284 -91 818 406 
Q 353 903 353 1747 
Q 353 2603 823 3093 
Q 1294 3584 2113 3584 
Q 2378 3584 2631 3529 
Q 2884 3475 3122 3366 
z
" transform="scale(0.015625)"/>
       <path id="DejaVuSans-76" d="M 191 3500 
L 800 3500 
L 1894 563 
L 2988 3500 
L 3597 3500 
L 2284 0 
L 1503 0 
L 191 3500 
z
" transform="scale(0.015625)"/>
      </defs>
      <use xlink:href="#DejaVuSans-4f"/>
      <use xlink:href="#DejaVuSans-62" x="78.710938"/>
      <use xlink:href="#DejaVuSans-6a" x="142.1875"/>
      <use xlink:href="#DejaVuSans-65" x="169.970703"/>
      <use xlink:href="#DejaVuSans-63" x="231.494141"/>
      <use xlink:href="#DejaVuSans-74" x="286.474609"/>
      <use xlink:href="#DejaVuSans-69" x="325.683594"/>
      <use xlink:href="#DejaVuSans-76" x="353.466797"/>
      <use xlink:href="#DejaVuSans-65" x="412.646484"/>
      <use xlink:href="#DejaVuSans-73" x="474.169922"/>
     </g>
    </g>
    <g id="patch_52">
     <path d="M 929.12625 50.836719 
L 947.12625 50.836719 
L 947.12625 44.536719 
L 929.12625 44.536719 
z
" style="fill: #1f77b4"/>
    </g>
    <g id="text_24">
     <!-- Max_hv -->
     <g transform="translate(954.32625 50.836719) scale(0.09 -0.09)">
      <defs>
       <path id="DejaVuSans-4d" d="M 628 4666 
L 1569 4666 
L 2759 1491 
L 3956 4666 
L 4897 4666 
L 4897 0 
L 4281 0 
L 4281 4097 
L 3078 897 
L 2444 897 
L 1241 4097 
L 1241 0 
L 628 0 
L 628 4666 
z
" transform="scale(0.015625)"/>
       <path id="DejaVuSans-78" d="M 3513 3500 
L 2247 1797 
L 3578 0 
L 2900 0 
L 1881 1375 
L 863 0 
L 184 0 
L 1544 1831 
L 300 3500 
L 978 3500 
L 1906 2253 
L 2834 3500 
L 3513 3500 
z
" transform="scale(0.015625)"/>
       <path id="DejaVuSans-5f" d="M 3263 -1063 
L 3263 -1509 
L -63 -1509 
L -63 -1063 
L 3263 -1063 
z
" transform="scale(0.015625)"/>
       <path id="DejaVuSans-68" d="M 3513 2113 
L 3513 0 
L 2938 0 
L 2938 2094 
Q 2938 2591 2744 2837 
Q 2550 3084 2163 3084 
Q 1697 3084 1428 2787 
Q 1159 2491 1159 1978 
L 1159 0 
L 581 0 
L 581 4863 
L 1159 4863 
L 1159 2956 
Q 1366 3272 1645 3428 
Q 1925 3584 2291 3584 
Q 2894 3584 3203 3211 
Q 3513 2838 3513 2113 
z
" transform="scale(0.015625)"/>
      </defs>
      <use xlink:href="#DejaVuSans-4d"/>
      <use xlink:href="#DejaVuSans-61" x="86.279297"/>
      <use xlink:href="#DejaVuSans-78" x="147.558594"/>
      <use xlink:href="#DejaVuSans-5f" x="206.738281"/>
      <use xlink:href="#DejaVuSans-68" x="256.738281"/>
      <use xlink:href="#DejaVuSans-76" x="320.117188"/>
     </g>
    </g>
    <g id="patch_53">
     <path d="M 929.12625 64.297344 
L 947.12625 64.297344 
L 947.12625 57.997344 
L 929.12625 57.997344 
z
" style="fill: #ff7f0e"/>
    </g>
    <g id="text_25">
     <!-- Min_ha -->
     <g transform="translate(954.32625 64.297344) scale(0.09 -0.09)">
      <use xlink:href="#DejaVuSans-4d"/>
      <use xlink:href="#DejaVuSans-69" x="86.279297"/>
      <use xlink:href="#DejaVuSans-6e" x="114.0625"/>
      <use xlink:href="#DejaVuSans-5f" x="177.441406"/>
      <use xlink:href="#DejaVuSans-68" x="227.441406"/>
      <use xlink:href="#DejaVuSans-61" x="290.820312"/>
     </g>
    </g>
    <g id="patch_54">
     <path d="M 929.12625 77.757969 
L 947.12625 77.757969 
L 947.12625 71.457969 
L 929.12625 71.457969 
z
" style="fill: #2ca02c"/>
    </g>
    <g id="text_26">
     <!-- Max_st -->
     <g transform="translate(954.32625 77.757969) scale(0.09 -0.09)">
      <use xlink:href="#DejaVuSans-4d"/>
      <use xlink:href="#DejaVuSans-61" x="86.279297"/>
      <use xlink:href="#DejaVuSans-78" x="147.558594"/>
      <use xlink:href="#DejaVuSans-5f" x="206.738281"/>
      <use xlink:href="#DejaVuSans-73" x="256.738281"/>
      <use xlink:href="#DejaVuSans-74" x="308.837891"/>
     </g>
    </g>
    <g id="patch_55">
     <path d="M 929.12625 91.218594 
L 947.12625 91.218594 
L 947.12625 84.918594 
L 929.12625 84.918594 
z
" style="fill: #d62728"/>
    </g>
    <g id="text_27">
     <!-- Min_em -->
     <g transform="translate(954.32625 91.218594) scale(0.09 -0.09)">
      <use xlink:href="#DejaVuSans-4d"/>
      <use xlink:href="#DejaVuSans-69" x="86.279297"/>
      <use xlink:href="#DejaVuSans-6e" x="114.0625"/>
      <use xlink:href="#DejaVuSans-5f" x="177.441406"/>
      <use xlink:href="#DejaVuSans-65" x="227.441406"/>
      <use xlink:href="#DejaVuSans-6d" x="288.964844"/>
     </g>
    </g>
   </g>
  </g>
 </g>
 <defs>
  <clipPath id="p079ad8e3c2">
   <rect x="65.27" y="21.72" width="931.93" height="355.378107"/>
  </clipPath>
 </defs>
</svg>
