<?xml version="1.0" encoding="utf-8" standalone="no"?>
<!DOCTYPE svg PUBLIC "-//W3C//DTD SVG 1.1//EN"
  "http://www.w3.org/Graphics/SVG/1.1/DTD/svg11.dtd">
<svg xmlns:xlink="http://www.w3.org/1999/xlink" width="1008pt" height="864pt" viewBox="0 0 1008 864" xmlns="http://www.w3.org/2000/svg" version="1.1">
 <metadata>
  <rdf:RDF xmlns:dc="http://purl.org/dc/elements/1.1/" xmlns:cc="http://creativecommons.org/ns#" xmlns:rdf="http://www.w3.org/1999/02/22-rdf-syntax-ns#">
   <cc:Work>
    <dc:type rdf:resource="http://purl.org/dc/dcmitype/StillImage"/>
    <dc:date>2024-12-03T19:32:55.922229</dc:date>
    <dc:format>image/svg+xml</dc:format>
    <dc:creator>
     <cc:Agent>
      <dc:title>Matplotlib v3.8.1, https://matplotlib.org/</dc:title>
     </cc:Agent>
    </dc:creator>
   </cc:Work>
  </rdf:RDF>
 </metadata>
 <defs>
  <style type="text/css">*{stroke-linejoin: round; stroke-linecap: butt}</style>
 </defs>
 <g id="figure_1">
  <g id="patch_1">
   <path d="M 0 864 
L 1008 864 
L 1008 0 
L 0 0 
z
" style="fill: #ffffff"/>
  </g>
  <g id="axes_1">
   <g id="patch_2">
    <path d="M 428.200227 270 
C 428.200227 247.444683 423.757322 225.108689 415.125776 204.270294 
C 406.49423 183.431898 393.841905 164.496357 377.892888 148.547339 
C 361.943871 132.598322 343.008329 119.945997 322.169934 111.314451 
C 301.331538 102.682906 278.995544 98.24 256.440227 98.24 
C 233.884911 98.24 211.548916 102.682906 190.710521 111.314451 
C 169.872126 119.945997 150.936584 132.598322 134.987567 148.547339 
C 119.038549 164.496357 106.386225 183.431898 97.754679 204.270294 
C 89.123133 225.108689 84.680227 247.444683 84.680227 270 
C 84.680227 292.555317 89.123133 314.891311 97.754679 335.729706 
C 106.386225 356.568102 119.038549 375.503643 134.987567 391.452661 
C 150.936584 407.401678 169.872126 420.054003 190.710521 428.685549 
C 211.548916 437.317094 233.884911 441.76 256.440227 441.76 
C 278.995544 441.76 301.331538 437.317094 322.169934 428.685549 
C 343.008329 420.054003 361.943871 407.401678 377.892888 391.452661 
C 393.841905 375.503643 406.49423 356.568102 415.125776 335.729706 
C 423.757322 314.891311 428.200227 292.555317 428.200227 270 
M 256.440227 270 
C 256.440227 270 256.440227 270 256.440227 270 
C 256.440227 270 256.440227 270 256.440227 270 
C 256.440227 270 256.440227 270 256.440227 270 
C 256.440227 270 256.440227 270 256.440227 270 
C 256.440227 270 256.440227 270 256.440227 270 
C 256.440227 270 256.440227 270 256.440227 270 
C 256.440227 270 256.440227 270 256.440227 270 
C 256.440227 270 256.440227 270 256.440227 270 
C 256.440227 270 256.440227 270 256.440227 270 
C 256.440227 270 256.440227 270 256.440227 270 
C 256.440227 270 256.440227 270 256.440227 270 
C 256.440227 270 256.440227 270 256.440227 270 
C 256.440227 270 256.440227 270 256.440227 270 
C 256.440227 270 256.440227 270 256.440227 270 
C 256.440227 270 256.440227 270 256.440227 270 
C 256.440227 270 256.440227 270 256.440227 270 
z
" style="fill: #ffffff"/>
   </g>
   <g id="matplotlib.axis_1">
    <g id="xtick_1">
     <g id="line2d_1">
      <path d="M 256.440227 270 
L 428.200227 270 
" clip-path="url(#p751b78e873)" style="fill: none; stroke: #b0b0b0; stroke-width: 0.8; stroke-linecap: square"/>
     </g>
     <g id="text_1">
      <!-- 0° -->
      <g transform="translate(436.518977 272.759375) scale(0.1 -0.1)">
       <defs>
        <path id="DejaVuSans-30" d="M 2034 4250 
Q 1547 4250 1301 3770 
Q 1056 3291 1056 2328 
Q 1056 1369 1301 889 
Q 1547 409 2034 409 
Q 2525 409 2770 889 
Q 3016 1369 3016 2328 
Q 3016 3291 2770 3770 
Q 2525 4250 2034 4250 
z
M 2034 4750 
Q 2819 4750 3233 4129 
Q 3647 3509 3647 2328 
Q 3647 1150 3233 529 
Q 2819 -91 2034 -91 
Q 1250 -91 836 529 
Q 422 1150 422 2328 
Q 422 3509 836 4129 
Q 1250 4750 2034 4750 
z
" transform="scale(0.015625)"/>
        <path id="DejaVuSans-b0" d="M 1600 4347 
Q 1350 4347 1178 4173 
Q 1006 4000 1006 3750 
Q 1006 3503 1178 3333 
Q 1350 3163 1600 3163 
Q 1850 3163 2022 3333 
Q 2194 3503 2194 3750 
Q 2194 3997 2020 4172 
Q 1847 4347 1600 4347 
z
M 1600 4750 
Q 1800 4750 1984 4673 
Q 2169 4597 2303 4453 
Q 2447 4313 2519 4134 
Q 2591 3956 2591 3750 
Q 2591 3338 2302 3052 
Q 2013 2766 1594 2766 
Q 1172 2766 890 3047 
Q 609 3328 609 3750 
Q 609 4169 896 4459 
Q 1184 4750 1600 4750 
z
" transform="scale(0.015625)"/>
       </defs>
       <use xlink:href="#DejaVuSans-30"/>
       <use xlink:href="#DejaVuSans-b0" x="63.623047"/>
      </g>
     </g>
    </g>
    <g id="xtick_2">
     <g id="line2d_2">
      <path d="M 256.440227 270 
L 377.892888 148.547339 
" clip-path="url(#p751b78e873)" style="fill: none; stroke: #b0b0b0; stroke-width: 0.8; stroke-linecap: square"/>
     </g>
     <g id="text_2">
      <!-- 45° -->
      <g transform="translate(378.929883 141.407219) scale(0.1 -0.1)">
       <defs>
        <path id="DejaVuSans-34" d="M 2419 4116 
L 825 1625 
L 2419 1625 
L 2419 4116 
z
M 2253 4666 
L 3047 4666 
L 3047 1625 
L 3713 1625 
L 3713 1100 
L 3047 1100 
L 3047 0 
L 2419 0 
L 2419 1100 
L 313 1100 
L 313 1709 
L 2253 4666 
z
" transform="scale(0.015625)"/>
        <path id="DejaVuSans-35" d="M 691 4666 
L 3169 4666 
L 3169 4134 
L 1269 4134 
L 1269 2991 
Q 1406 3038 1543 3061 
Q 1681 3084 1819 3084 
Q 2600 3084 3056 2656 
Q 3513 2228 3513 1497 
Q 3513 744 3044 326 
Q 2575 -91 1722 -91 
Q 1428 -91 1123 -41 
Q 819 9 494 109 
L 494 744 
Q 775 591 1075 516 
Q 1375 441 1709 441 
Q 2250 441 2565 725 
Q 2881 1009 2881 1497 
Q 2881 1984 2565 2268 
Q 2250 2553 1709 2553 
Q 1456 2553 1204 2497 
Q 953 2441 691 2322 
L 691 4666 
z
" transform="scale(0.015625)"/>
       </defs>
       <use xlink:href="#DejaVuSans-34"/>
       <use xlink:href="#DejaVuSans-35" x="63.623047"/>
       <use xlink:href="#DejaVuSans-b0" x="127.246094"/>
      </g>
     </g>
    </g>
    <g id="xtick_3">
     <g id="line2d_3">
      <path d="M 256.440227 270 
L 256.440227 98.24 
" clip-path="url(#p751b78e873)" style="fill: none; stroke: #b0b0b0; stroke-width: 0.8; stroke-linecap: square"/>
     </g>
     <g id="text_3">
      <!-- 90° -->
      <g transform="translate(247.577727 86.999375) scale(0.1 -0.1)">
       <defs>
        <path id="DejaVuSans-39" d="M 703 97 
L 703 672 
Q 941 559 1184 500 
Q 1428 441 1663 441 
Q 2288 441 2617 861 
Q 2947 1281 2994 2138 
Q 2813 1869 2534 1725 
Q 2256 1581 1919 1581 
Q 1219 1581 811 2004 
Q 403 2428 403 3163 
Q 403 3881 828 4315 
Q 1253 4750 1959 4750 
Q 2769 4750 3195 4129 
Q 3622 3509 3622 2328 
Q 3622 1225 3098 567 
Q 2575 -91 1691 -91 
Q 1453 -91 1209 -44 
Q 966 3 703 97 
z
M 1959 2075 
Q 2384 2075 2632 2365 
Q 2881 2656 2881 3163 
Q 2881 3666 2632 3958 
Q 2384 4250 1959 4250 
Q 1534 4250 1286 3958 
Q 1038 3666 1038 3163 
Q 1038 2656 1286 2365 
Q 1534 2075 1959 2075 
z
" transform="scale(0.015625)"/>
       </defs>
       <use xlink:href="#DejaVuSans-39"/>
       <use xlink:href="#DejaVuSans-30" x="63.623047"/>
       <use xlink:href="#DejaVuSans-b0" x="127.246094"/>
      </g>
     </g>
    </g>
    <g id="xtick_4">
     <g id="line2d_4">
      <path d="M 256.440227 270 
L 134.987567 148.547339 
" clip-path="url(#p751b78e873)" style="fill: none; stroke: #b0b0b0; stroke-width: 0.8; stroke-linecap: square"/>
     </g>
     <g id="text_4">
      <!-- 135° -->
      <g transform="translate(113.044322 141.407219) scale(0.1 -0.1)">
       <defs>
        <path id="DejaVuSans-31" d="M 794 531 
L 1825 531 
L 1825 4091 
L 703 3866 
L 703 4441 
L 1819 4666 
L 2450 4666 
L 2450 531 
L 3481 531 
L 3481 0 
L 794 0 
L 794 531 
z
" transform="scale(0.015625)"/>
        <path id="DejaVuSans-33" d="M 2597 2516 
Q 3050 2419 3304 2112 
Q 3559 1806 3559 1356 
Q 3559 666 3084 287 
Q 2609 -91 1734 -91 
Q 1441 -91 1130 -33 
Q 819 25 488 141 
L 488 750 
Q 750 597 1062 519 
Q 1375 441 1716 441 
Q 2309 441 2620 675 
Q 2931 909 2931 1356 
Q 2931 1769 2642 2001 
Q 2353 2234 1838 2234 
L 1294 2234 
L 1294 2753 
L 1863 2753 
Q 2328 2753 2575 2939 
Q 2822 3125 2822 3475 
Q 2822 3834 2567 4026 
Q 2313 4219 1838 4219 
Q 1578 4219 1281 4162 
Q 984 4106 628 3988 
L 628 4550 
Q 988 4650 1302 4700 
Q 1616 4750 1894 4750 
Q 2613 4750 3031 4423 
Q 3450 4097 3450 3541 
Q 3450 3153 3228 2886 
Q 3006 2619 2597 2516 
z
" transform="scale(0.015625)"/>
       </defs>
       <use xlink:href="#DejaVuSans-31"/>
       <use xlink:href="#DejaVuSans-33" x="63.623047"/>
       <use xlink:href="#DejaVuSans-35" x="127.246094"/>
       <use xlink:href="#DejaVuSans-b0" x="190.869141"/>
      </g>
     </g>
    </g>
    <g id="xtick_5">
     <g id="line2d_5">
      <path d="M 256.440227 270 
L 84.680227 270 
" clip-path="url(#p751b78e873)" style="fill: none; stroke: #b0b0b0; stroke-width: 0.8; stroke-linecap: square"/>
     </g>
     <g id="text_5">
      <!-- 180° -->
      <g transform="translate(58.636477 272.759375) scale(0.1 -0.1)">
       <defs>
        <path id="DejaVuSans-38" d="M 2034 2216 
Q 1584 2216 1326 1975 
Q 1069 1734 1069 1313 
Q 1069 891 1326 650 
Q 1584 409 2034 409 
Q 2484 409 2743 651 
Q 3003 894 3003 1313 
Q 3003 1734 2745 1975 
Q 2488 2216 2034 2216 
z
M 1403 2484 
Q 997 2584 770 2862 
Q 544 3141 544 3541 
Q 544 4100 942 4425 
Q 1341 4750 2034 4750 
Q 2731 4750 3128 4425 
Q 3525 4100 3525 3541 
Q 3525 3141 3298 2862 
Q 3072 2584 2669 2484 
Q 3125 2378 3379 2068 
Q 3634 1759 3634 1313 
Q 3634 634 3220 271 
Q 2806 -91 2034 -91 
Q 1263 -91 848 271 
Q 434 634 434 1313 
Q 434 1759 690 2068 
Q 947 2378 1403 2484 
z
M 1172 3481 
Q 1172 3119 1398 2916 
Q 1625 2713 2034 2713 
Q 2441 2713 2670 2916 
Q 2900 3119 2900 3481 
Q 2900 3844 2670 4047 
Q 2441 4250 2034 4250 
Q 1625 4250 1398 4047 
Q 1172 3844 1172 3481 
z
" transform="scale(0.015625)"/>
       </defs>
       <use xlink:href="#DejaVuSans-31"/>
       <use xlink:href="#DejaVuSans-38" x="63.623047"/>
       <use xlink:href="#DejaVuSans-30" x="127.246094"/>
       <use xlink:href="#DejaVuSans-b0" x="190.869141"/>
      </g>
     </g>
    </g>
    <g id="xtick_6">
     <g id="line2d_6">
      <path d="M 256.440227 270 
L 134.987567 391.452661 
" clip-path="url(#p751b78e873)" style="fill: none; stroke: #b0b0b0; stroke-width: 0.8; stroke-linecap: square"/>
     </g>
     <g id="text_6">
      <!-- 225° -->
      <g transform="translate(113.044322 404.111531) scale(0.1 -0.1)">
       <defs>
        <path id="DejaVuSans-32" d="M 1228 531 
L 3431 531 
L 3431 0 
L 469 0 
L 469 531 
Q 828 903 1448 1529 
Q 2069 2156 2228 2338 
Q 2531 2678 2651 2914 
Q 2772 3150 2772 3378 
Q 2772 3750 2511 3984 
Q 2250 4219 1831 4219 
Q 1534 4219 1204 4116 
Q 875 4013 500 3803 
L 500 4441 
Q 881 4594 1212 4672 
Q 1544 4750 1819 4750 
Q 2544 4750 2975 4387 
Q 3406 4025 3406 3419 
Q 3406 3131 3298 2873 
Q 3191 2616 2906 2266 
Q 2828 2175 2409 1742 
Q 1991 1309 1228 531 
z
" transform="scale(0.015625)"/>
       </defs>
       <use xlink:href="#DejaVuSans-32"/>
       <use xlink:href="#DejaVuSans-32" x="63.623047"/>
       <use xlink:href="#DejaVuSans-35" x="127.246094"/>
       <use xlink:href="#DejaVuSans-b0" x="190.869141"/>
      </g>
     </g>
    </g>
    <g id="xtick_7">
     <g id="line2d_7">
      <path d="M 256.440227 270 
L 256.440227 441.76 
" clip-path="url(#p751b78e873)" style="fill: none; stroke: #b0b0b0; stroke-width: 0.8; stroke-linecap: square"/>
     </g>
     <g id="text_7">
      <!-- 270° -->
      <g transform="translate(244.396477 458.519375) scale(0.1 -0.1)">
       <defs>
        <path id="DejaVuSans-37" d="M 525 4666 
L 3525 4666 
L 3525 4397 
L 1831 0 
L 1172 0 
L 2766 4134 
L 525 4134 
L 525 4666 
z
" transform="scale(0.015625)"/>
       </defs>
       <use xlink:href="#DejaVuSans-32"/>
       <use xlink:href="#DejaVuSans-37" x="63.623047"/>
       <use xlink:href="#DejaVuSans-30" x="127.246094"/>
       <use xlink:href="#DejaVuSans-b0" x="190.869141"/>
      </g>
     </g>
    </g>
    <g id="xtick_8">
     <g id="line2d_8">
      <path d="M 256.440227 270 
L 377.892888 391.452661 
" clip-path="url(#p751b78e873)" style="fill: none; stroke: #b0b0b0; stroke-width: 0.8; stroke-linecap: square"/>
     </g>
     <g id="text_8">
      <!-- 315° -->
      <g transform="translate(375.748633 404.111531) scale(0.1 -0.1)">
       <use xlink:href="#DejaVuSans-33"/>
       <use xlink:href="#DejaVuSans-31" x="63.623047"/>
       <use xlink:href="#DejaVuSans-35" x="127.246094"/>
       <use xlink:href="#DejaVuSans-b0" x="190.869141"/>
      </g>
     </g>
    </g>
   </g>
   <g id="matplotlib.axis_2">
    <g id="ytick_1">
     <g id="line2d_9">
      <path d="M 290.792227 270 
C 290.792227 265.488937 289.903646 261.021738 288.177337 256.854059 
C 286.451028 252.68638 283.920563 248.899271 280.730759 245.709468 
C 277.540956 242.519664 273.753848 239.989199 269.586169 238.26289 
C 265.418489 236.536581 260.951291 235.648 256.440227 235.648 
C 251.929164 235.648 247.461965 236.536581 243.294286 238.26289 
C 239.126607 239.989199 235.339499 242.519664 232.149695 245.709468 
C 228.959892 248.899271 226.429427 252.68638 224.703118 256.854059 
C 222.976808 261.021738 222.088227 265.488937 222.088227 270 
C 222.088227 274.511063 222.976808 278.978262 224.703118 283.145941 
C 226.429427 287.31362 228.959892 291.100729 232.149695 294.290532 
C 235.339499 297.480336 239.126607 300.010801 243.294286 301.73711 
C 247.461965 303.463419 251.929164 304.352 256.440227 304.352 
C 260.951291 304.352 265.418489 303.463419 269.586169 301.73711 
C 273.753848 300.010801 277.540956 297.480336 280.730759 294.290532 
C 283.920563 291.100729 286.451028 287.31362 288.177337 283.145941 
C 289.903646 278.978262 290.792227 274.511063 290.792227 270 
" clip-path="url(#p751b78e873)" style="fill: none; stroke: #b0b0b0; stroke-width: 0.8; stroke-linecap: square"/>
     </g>
     <g id="text_9">
      <!-- 0.2 -->
      <g transform="translate(288.177337 254.774371) scale(0.1 -0.1)">
       <defs>
        <path id="DejaVuSans-2e" d="M 684 794 
L 1344 794 
L 1344 0 
L 684 0 
L 684 794 
z
" transform="scale(0.015625)"/>
       </defs>
       <use xlink:href="#DejaVuSans-30"/>
       <use xlink:href="#DejaVuSans-2e" x="63.623047"/>
       <use xlink:href="#DejaVuSans-32" x="95.410156"/>
      </g>
     </g>
    </g>
    <g id="ytick_2">
     <g id="line2d_10">
      <path d="M 325.144227 270 
C 325.144227 260.977873 323.367065 252.043476 319.914447 243.708117 
C 316.461828 235.372759 311.400898 227.798543 305.021292 221.418936 
C 298.641685 215.039329 291.067468 209.978399 282.73211 206.525781 
C 274.396752 203.073162 265.462354 201.296 256.440227 201.296 
C 247.418101 201.296 238.483703 203.073162 230.148345 206.525781 
C 221.812987 209.978399 214.23877 215.039329 207.859163 221.418936 
C 201.479556 227.798543 196.418626 235.372759 192.966008 243.708117 
C 189.513389 252.043476 187.736227 260.977873 187.736227 270 
C 187.736227 279.022127 189.513389 287.956524 192.966008 296.291883 
C 196.418626 304.627241 201.479556 312.201457 207.859163 318.581064 
C 214.23877 324.960671 221.812987 330.021601 230.148345 333.474219 
C 238.483703 336.926838 247.418101 338.704 256.440227 338.704 
C 265.462354 338.704 274.396752 336.926838 282.73211 333.474219 
C 291.067468 330.021601 298.641685 324.960671 305.021292 318.581064 
C 311.400898 312.201457 316.461828 304.627241 319.914447 296.291883 
C 323.367065 287.956524 325.144227 279.022127 325.144227 270 
" clip-path="url(#p751b78e873)" style="fill: none; stroke: #b0b0b0; stroke-width: 0.8; stroke-linecap: square"/>
     </g>
     <g id="text_10">
      <!-- 0.4 -->
      <g transform="translate(319.914447 241.62843) scale(0.1 -0.1)">
       <use xlink:href="#DejaVuSans-30"/>
       <use xlink:href="#DejaVuSans-2e" x="63.623047"/>
       <use xlink:href="#DejaVuSans-34" x="95.410156"/>
      </g>
     </g>
    </g>
    <g id="ytick_3">
     <g id="line2d_11">
      <path d="M 359.496227 270 
C 359.496227 256.46681 356.830484 243.065213 351.651556 230.562176 
C 346.472629 218.059139 338.881234 206.697814 329.311824 197.128404 
C 319.742413 187.558993 308.381088 179.967598 295.878051 174.788671 
C 283.375014 169.609743 269.973417 166.944 256.440227 166.944 
C 242.907037 166.944 229.505441 169.609743 217.002403 174.788671 
C 204.499366 179.967598 193.138041 187.558993 183.568631 197.128404 
C 173.99922 206.697814 166.407826 218.059139 161.228898 230.562176 
C 156.049971 243.065213 153.384227 256.46681 153.384227 270 
C 153.384227 283.53319 156.049971 296.934787 161.228898 309.437824 
C 166.407826 321.940861 173.99922 333.302186 183.568631 342.871596 
C 193.138041 352.441007 204.499366 360.032402 217.002403 365.211329 
C 229.505441 370.390257 242.907037 373.056 256.440227 373.056 
C 269.973417 373.056 283.375014 370.390257 295.878051 365.211329 
C 308.381088 360.032402 319.742413 352.441007 329.311824 342.871596 
C 338.881234 333.302186 346.472629 321.940861 351.651556 309.437824 
C 356.830484 296.934787 359.496227 283.53319 359.496227 270 
" clip-path="url(#p751b78e873)" style="fill: none; stroke: #b0b0b0; stroke-width: 0.8; stroke-linecap: square"/>
     </g>
     <g id="text_11">
      <!-- 0.6 -->
      <g transform="translate(351.651556 228.482489) scale(0.1 -0.1)">
       <defs>
        <path id="DejaVuSans-36" d="M 2113 2584 
Q 1688 2584 1439 2293 
Q 1191 2003 1191 1497 
Q 1191 994 1439 701 
Q 1688 409 2113 409 
Q 2538 409 2786 701 
Q 3034 994 3034 1497 
Q 3034 2003 2786 2293 
Q 2538 2584 2113 2584 
z
M 3366 4563 
L 3366 3988 
Q 3128 4100 2886 4159 
Q 2644 4219 2406 4219 
Q 1781 4219 1451 3797 
Q 1122 3375 1075 2522 
Q 1259 2794 1537 2939 
Q 1816 3084 2150 3084 
Q 2853 3084 3261 2657 
Q 3669 2231 3669 1497 
Q 3669 778 3244 343 
Q 2819 -91 2113 -91 
Q 1303 -91 875 529 
Q 447 1150 447 2328 
Q 447 3434 972 4092 
Q 1497 4750 2381 4750 
Q 2619 4750 2861 4703 
Q 3103 4656 3366 4563 
z
" transform="scale(0.015625)"/>
       </defs>
       <use xlink:href="#DejaVuSans-30"/>
       <use xlink:href="#DejaVuSans-2e" x="63.623047"/>
       <use xlink:href="#DejaVuSans-36" x="95.410156"/>
      </g>
     </g>
    </g>
    <g id="ytick_4">
     <g id="line2d_12">
      <path d="M 393.848227 270 
C 393.848227 251.955747 390.293903 234.086951 383.388666 217.416235 
C 376.483429 200.745519 366.36157 185.597085 353.602356 172.837871 
C 340.843142 160.078658 325.694709 149.956798 309.023992 143.051561 
C 292.353276 136.146324 274.484481 132.592 256.440227 132.592 
C 238.395974 132.592 220.527178 136.146324 203.856462 143.051561 
C 187.185746 149.956798 172.037313 160.078658 159.278099 172.837871 
C 146.518885 185.597085 136.397025 200.745519 129.491788 217.416235 
C 122.586552 234.086951 119.032227 251.955747 119.032227 270 
C 119.032227 288.044253 122.586552 305.913049 129.491788 322.583765 
C 136.397025 339.254481 146.518885 354.402915 159.278099 367.162129 
C 172.037313 379.921342 187.185746 390.043202 203.856462 396.948439 
C 220.527178 403.853676 238.395974 407.408 256.440227 407.408 
C 274.484481 407.408 292.353276 403.853676 309.023992 396.948439 
C 325.694709 390.043202 340.843142 379.921342 353.602356 367.162129 
C 366.36157 354.402915 376.483429 339.254481 383.388666 322.583765 
C 390.293903 305.913049 393.848227 288.044253 393.848227 270 
" clip-path="url(#p751b78e873)" style="fill: none; stroke: #b0b0b0; stroke-width: 0.8; stroke-linecap: square"/>
     </g>
     <g id="text_12">
      <!-- 0.8 -->
      <g transform="translate(383.388666 215.336547) scale(0.1 -0.1)">
       <use xlink:href="#DejaVuSans-30"/>
       <use xlink:href="#DejaVuSans-2e" x="63.623047"/>
       <use xlink:href="#DejaVuSans-38" x="95.410156"/>
      </g>
     </g>
    </g>
    <g id="ytick_5">
     <g id="line2d_13">
      <path d="M 428.200227 270 
C 428.200227 247.444683 423.757322 225.108689 415.125776 204.270294 
C 406.49423 183.431898 393.841905 164.496357 377.892888 148.547339 
C 361.943871 132.598322 343.008329 119.945997 322.169934 111.314451 
C 301.331538 102.682906 278.995544 98.24 256.440227 98.24 
C 233.884911 98.24 211.548916 102.682906 190.710521 111.314451 
C 169.872126 119.945997 150.936584 132.598322 134.987567 148.547339 
C 119.038549 164.496357 106.386225 183.431898 97.754679 204.270294 
C 89.123133 225.108689 84.680227 247.444683 84.680227 270 
C 84.680227 292.555317 89.123133 314.891311 97.754679 335.729706 
C 106.386225 356.568102 119.038549 375.503643 134.987567 391.452661 
C 150.936584 407.401678 169.872126 420.054003 190.710521 428.685549 
C 211.548916 437.317094 233.884911 441.76 256.440227 441.76 
C 278.995544 441.76 301.331538 437.317094 322.169934 428.685549 
C 343.008329 420.054003 361.943871 407.401678 377.892888 391.452661 
C 393.841905 375.503643 406.49423 356.568102 415.125776 335.729706 
C 423.757322 314.891311 428.200227 292.555317 428.200227 270 
" clip-path="url(#p751b78e873)" style="fill: none; stroke: #b0b0b0; stroke-width: 0.8; stroke-linecap: square"/>
     </g>
     <g id="text_13">
      <!-- 1.0 -->
      <g transform="translate(415.125776 202.190606) scale(0.1 -0.1)">
       <use xlink:href="#DejaVuSans-31"/>
       <use xlink:href="#DejaVuSans-2e" x="63.623047"/>
       <use xlink:href="#DejaVuSans-30" x="95.410156"/>
      </g>
     </g>
    </g>
   </g>
   <g id="patch_3">
    <path d="M 428.200227 270 
C 428.200227 247.444683 423.757322 225.108689 415.125776 204.270294 
C 406.49423 183.431898 393.841905 164.496357 377.892888 148.547339 
C 361.943871 132.598322 343.008329 119.945997 322.169934 111.314451 
C 301.331538 102.682906 278.995544 98.24 256.440227 98.24 
C 233.884911 98.24 211.548916 102.682906 190.710521 111.314451 
C 169.872126 119.945997 150.936584 132.598322 134.987567 148.547339 
C 119.038549 164.496357 106.386225 183.431898 97.754679 204.270294 
C 89.123133 225.108689 84.680227 247.444683 84.680227 270 
C 84.680227 292.555317 89.123133 314.891311 97.754679 335.729706 
C 106.386225 356.568102 119.038549 375.503643 134.987567 391.452661 
C 150.936584 407.401678 169.872126 420.054003 190.710521 428.685549 
C 211.548916 437.317094 233.884911 441.76 256.440227 441.76 
C 278.995544 441.76 301.331538 437.317094 322.169934 428.685549 
C 343.008329 420.054003 361.943871 407.401678 377.892888 391.452661 
C 393.841905 375.503643 406.49423 356.568102 415.125776 335.729706 
C 423.757322 314.891311 428.200227 292.555317 428.200227 270 
" style="fill: none; stroke: #000000; stroke-width: 0.8; stroke-linejoin: miter; stroke-linecap: square"/>
   </g>
  </g>
  <g id="axes_2">
   <g id="patch_4">
    <path d="M 923.319773 270 
C 923.319773 247.444683 918.876867 225.108689 910.245321 204.270294 
C 901.613775 183.431898 888.961451 164.496357 873.012433 148.547339 
C 857.063416 132.598322 838.127874 119.945997 817.289479 111.314451 
C 796.451084 102.682906 774.115089 98.24 751.559773 98.24 
C 729.004456 98.24 706.668462 102.682906 685.830066 111.314451 
C 664.991671 119.945997 646.056129 132.598322 630.107112 148.547339 
C 614.158095 164.496357 601.50577 183.431898 592.874224 204.270294 
C 584.242678 225.108689 579.799773 247.444683 579.799773 270 
C 579.799773 292.555317 584.242678 314.891311 592.874224 335.729706 
C 601.50577 356.568102 614.158095 375.503643 630.107112 391.452661 
C 646.056129 407.401678 664.991671 420.054003 685.830066 428.685549 
C 706.668462 437.317094 729.004456 441.76 751.559773 441.76 
C 774.115089 441.76 796.451084 437.317094 817.289479 428.685549 
C 838.127874 420.054003 857.063416 407.401678 873.012433 391.452661 
C 888.961451 375.503643 901.613775 356.568102 910.245321 335.729706 
C 918.876867 314.891311 923.319773 292.555317 923.319773 270 
M 751.559773 270 
C 751.559773 270 751.559773 270 751.559773 270 
C 751.559773 270 751.559773 270 751.559773 270 
C 751.559773 270 751.559773 270 751.559773 270 
C 751.559773 270 751.559773 270 751.559773 270 
C 751.559773 270 751.559773 270 751.559773 270 
C 751.559773 270 751.559773 270 751.559773 270 
C 751.559773 270 751.559773 270 751.559773 270 
C 751.559773 270 751.559773 270 751.559773 270 
C 751.559773 270 751.559773 270 751.559773 270 
C 751.559773 270 751.559773 270 751.559773 270 
C 751.559773 270 751.559773 270 751.559773 270 
C 751.559773 270 751.559773 270 751.559773 270 
C 751.559773 270 751.559773 270 751.559773 270 
C 751.559773 270 751.559773 270 751.559773 270 
C 751.559773 270 751.559773 270 751.559773 270 
C 751.559773 270 751.559773 270 751.559773 270 
z
" style="fill: #ffffff"/>
   </g>
   <g id="matplotlib.axis_3">
    <g id="xtick_9">
     <g id="line2d_14">
      <path d="M 751.559773 270 
L 923.319773 270 
" clip-path="url(#p7aff3a8109)" style="fill: none; stroke: #b0b0b0; stroke-width: 0.8; stroke-linecap: square"/>
     </g>
     <g id="text_14">
      <!-- 0° -->
      <g transform="translate(931.638523 272.759375) scale(0.1 -0.1)">
       <use xlink:href="#DejaVuSans-30"/>
       <use xlink:href="#DejaVuSans-b0" x="63.623047"/>
      </g>
     </g>
    </g>
    <g id="xtick_10">
     <g id="line2d_15">
      <path d="M 751.559773 270 
L 873.012433 148.547339 
" clip-path="url(#p7aff3a8109)" style="fill: none; stroke: #b0b0b0; stroke-width: 0.8; stroke-linecap: square"/>
     </g>
     <g id="text_15">
      <!-- 45° -->
      <g transform="translate(874.049428 141.407219) scale(0.1 -0.1)">
       <use xlink:href="#DejaVuSans-34"/>
       <use xlink:href="#DejaVuSans-35" x="63.623047"/>
       <use xlink:href="#DejaVuSans-b0" x="127.246094"/>
      </g>
     </g>
    </g>
    <g id="xtick_11">
     <g id="line2d_16">
      <path d="M 751.559773 270 
L 751.559773 98.24 
" clip-path="url(#p7aff3a8109)" style="fill: none; stroke: #b0b0b0; stroke-width: 0.8; stroke-linecap: square"/>
     </g>
     <g id="text_16">
      <!-- 90° -->
      <g transform="translate(742.697273 86.999375) scale(0.1 -0.1)">
       <use xlink:href="#DejaVuSans-39"/>
       <use xlink:href="#DejaVuSans-30" x="63.623047"/>
       <use xlink:href="#DejaVuSans-b0" x="127.246094"/>
      </g>
     </g>
    </g>
    <g id="xtick_12">
     <g id="line2d_17">
      <path d="M 751.559773 270 
L 630.107112 148.547339 
" clip-path="url(#p7aff3a8109)" style="fill: none; stroke: #b0b0b0; stroke-width: 0.8; stroke-linecap: square"/>
     </g>
     <g id="text_17">
      <!-- 135° -->
      <g transform="translate(608.163867 141.407219) scale(0.1 -0.1)">
       <use xlink:href="#DejaVuSans-31"/>
       <use xlink:href="#DejaVuSans-33" x="63.623047"/>
       <use xlink:href="#DejaVuSans-35" x="127.246094"/>
       <use xlink:href="#DejaVuSans-b0" x="190.869141"/>
      </g>
     </g>
    </g>
    <g id="xtick_13">
     <g id="line2d_18">
      <path d="M 751.559773 270 
L 579.799773 270 
" clip-path="url(#p7aff3a8109)" style="fill: none; stroke: #b0b0b0; stroke-width: 0.8; stroke-linecap: square"/>
     </g>
     <g id="text_18">
      <!-- 180° -->
      <g transform="translate(553.756023 272.759375) scale(0.1 -0.1)">
       <use xlink:href="#DejaVuSans-31"/>
       <use xlink:href="#DejaVuSans-38" x="63.623047"/>
       <use xlink:href="#DejaVuSans-30" x="127.246094"/>
       <use xlink:href="#DejaVuSans-b0" x="190.869141"/>
      </g>
     </g>
    </g>
    <g id="xtick_14">
     <g id="line2d_19">
      <path d="M 751.559773 270 
L 630.107112 391.452661 
" clip-path="url(#p7aff3a8109)" style="fill: none; stroke: #b0b0b0; stroke-width: 0.8; stroke-linecap: square"/>
     </g>
     <g id="text_19">
      <!-- 225° -->
      <g transform="translate(608.163867 404.111531) scale(0.1 -0.1)">
       <use xlink:href="#DejaVuSans-32"/>
       <use xlink:href="#DejaVuSans-32" x="63.623047"/>
       <use xlink:href="#DejaVuSans-35" x="127.246094"/>
       <use xlink:href="#DejaVuSans-b0" x="190.869141"/>
      </g>
     </g>
    </g>
    <g id="xtick_15">
     <g id="line2d_20">
      <path d="M 751.559773 270 
L 751.559773 441.76 
" clip-path="url(#p7aff3a8109)" style="fill: none; stroke: #b0b0b0; stroke-width: 0.8; stroke-linecap: square"/>
     </g>
     <g id="text_20">
      <!-- 270° -->
      <g transform="translate(739.516023 458.519375) scale(0.1 -0.1)">
       <use xlink:href="#DejaVuSans-32"/>
       <use xlink:href="#DejaVuSans-37" x="63.623047"/>
       <use xlink:href="#DejaVuSans-30" x="127.246094"/>
       <use xlink:href="#DejaVuSans-b0" x="190.869141"/>
      </g>
     </g>
    </g>
    <g id="xtick_16">
     <g id="line2d_21">
      <path d="M 751.559773 270 
L 873.012433 391.452661 
" clip-path="url(#p7aff3a8109)" style="fill: none; stroke: #b0b0b0; stroke-width: 0.8; stroke-linecap: square"/>
     </g>
     <g id="text_21">
      <!-- 315° -->
      <g transform="translate(870.868178 404.111531) scale(0.1 -0.1)">
       <use xlink:href="#DejaVuSans-33"/>
       <use xlink:href="#DejaVuSans-31" x="63.623047"/>
       <use xlink:href="#DejaVuSans-35" x="127.246094"/>
       <use xlink:href="#DejaVuSans-b0" x="190.869141"/>
      </g>
     </g>
    </g>
   </g>
   <g id="matplotlib.axis_4">
    <g id="ytick_6">
     <g id="line2d_22">
      <path d="M 785.911773 270 
C 785.911773 265.488937 785.023192 261.021738 783.296882 256.854059 
C 781.570573 252.68638 779.040108 248.899271 775.850305 245.709468 
C 772.660501 242.519664 768.873393 239.989199 764.705714 238.26289 
C 760.538035 236.536581 756.070836 235.648 751.559773 235.648 
C 747.048709 235.648 742.581511 236.536581 738.413831 238.26289 
C 734.246152 239.989199 730.459044 242.519664 727.269241 245.709468 
C 724.079437 248.899271 721.548972 252.68638 719.822663 256.854059 
C 718.096354 261.021738 717.207773 265.488937 717.207773 270 
C 717.207773 274.511063 718.096354 278.978262 719.822663 283.145941 
C 721.548972 287.31362 724.079437 291.100729 727.269241 294.290532 
C 730.459044 297.480336 734.246152 300.010801 738.413831 301.73711 
C 742.581511 303.463419 747.048709 304.352 751.559773 304.352 
C 756.070836 304.352 760.538035 303.463419 764.705714 301.73711 
C 768.873393 300.010801 772.660501 297.480336 775.850305 294.290532 
C 779.040108 291.100729 781.570573 287.31362 783.296882 283.145941 
C 785.023192 278.978262 785.911773 274.511063 785.911773 270 
" clip-path="url(#p7aff3a8109)" style="fill: none; stroke: #b0b0b0; stroke-width: 0.8; stroke-linecap: square"/>
     </g>
     <g id="text_22">
      <!-- 0.2 -->
      <g transform="translate(783.296882 254.774371) scale(0.1 -0.1)">
       <use xlink:href="#DejaVuSans-30"/>
       <use xlink:href="#DejaVuSans-2e" x="63.623047"/>
       <use xlink:href="#DejaVuSans-32" x="95.410156"/>
      </g>
     </g>
    </g>
    <g id="ytick_7">
     <g id="line2d_23">
      <path d="M 820.263773 270 
C 820.263773 260.977873 818.486611 252.043476 815.033992 243.708117 
C 811.581374 235.372759 806.520444 227.798543 800.140837 221.418936 
C 793.76123 215.039329 786.187013 209.978399 777.851655 206.525781 
C 769.516297 203.073162 760.581899 201.296 751.559773 201.296 
C 742.537646 201.296 733.603248 203.073162 725.26789 206.525781 
C 716.932532 209.978399 709.358315 215.039329 702.978708 221.418936 
C 696.599102 227.798543 691.538172 235.372759 688.085553 243.708117 
C 684.632935 252.043476 682.855773 260.977873 682.855773 270 
C 682.855773 279.022127 684.632935 287.956524 688.085553 296.291883 
C 691.538172 304.627241 696.599102 312.201457 702.978708 318.581064 
C 709.358315 324.960671 716.932532 330.021601 725.26789 333.474219 
C 733.603248 336.926838 742.537646 338.704 751.559773 338.704 
C 760.581899 338.704 769.516297 336.926838 777.851655 333.474219 
C 786.187013 330.021601 793.76123 324.960671 800.140837 318.581064 
C 806.520444 312.201457 811.581374 304.627241 815.033992 296.291883 
C 818.486611 287.956524 820.263773 279.022127 820.263773 270 
" clip-path="url(#p7aff3a8109)" style="fill: none; stroke: #b0b0b0; stroke-width: 0.8; stroke-linecap: square"/>
     </g>
     <g id="text_23">
      <!-- 0.4 -->
      <g transform="translate(815.033992 241.62843) scale(0.1 -0.1)">
       <use xlink:href="#DejaVuSans-30"/>
       <use xlink:href="#DejaVuSans-2e" x="63.623047"/>
       <use xlink:href="#DejaVuSans-34" x="95.410156"/>
      </g>
     </g>
    </g>
    <g id="ytick_8">
     <g id="line2d_24">
      <path d="M 854.615773 270 
C 854.615773 256.46681 851.950029 243.065213 846.771102 230.562176 
C 841.592174 218.059139 834.00078 206.697814 824.431369 197.128404 
C 814.861959 187.558993 803.500634 179.967598 790.997597 174.788671 
C 778.494559 169.609743 765.092963 166.944 751.559773 166.944 
C 738.026583 166.944 724.624986 169.609743 712.121949 174.788671 
C 699.618912 179.967598 688.257587 187.558993 678.688176 197.128404 
C 669.118766 206.697814 661.527371 218.059139 656.348444 230.562176 
C 651.169516 243.065213 648.503773 256.46681 648.503773 270 
C 648.503773 283.53319 651.169516 296.934787 656.348444 309.437824 
C 661.527371 321.940861 669.118766 333.302186 678.688176 342.871596 
C 688.257587 352.441007 699.618912 360.032402 712.121949 365.211329 
C 724.624986 370.390257 738.026583 373.056 751.559773 373.056 
C 765.092963 373.056 778.494559 370.390257 790.997597 365.211329 
C 803.500634 360.032402 814.861959 352.441007 824.431369 342.871596 
C 834.00078 333.302186 841.592174 321.940861 846.771102 309.437824 
C 851.950029 296.934787 854.615773 283.53319 854.615773 270 
" clip-path="url(#p7aff3a8109)" style="fill: none; stroke: #b0b0b0; stroke-width: 0.8; stroke-linecap: square"/>
     </g>
     <g id="text_24">
      <!-- 0.6 -->
      <g transform="translate(846.771102 228.482489) scale(0.1 -0.1)">
       <use xlink:href="#DejaVuSans-30"/>
       <use xlink:href="#DejaVuSans-2e" x="63.623047"/>
       <use xlink:href="#DejaVuSans-36" x="95.410156"/>
      </g>
     </g>
    </g>
    <g id="ytick_9">
     <g id="line2d_25">
      <path d="M 888.967773 270 
C 888.967773 251.955747 885.413448 234.086951 878.508212 217.416235 
C 871.602975 200.745519 861.481115 185.597085 848.721901 172.837871 
C 835.962687 160.078658 820.814254 149.956798 804.143538 143.051561 
C 787.472822 136.146324 769.604026 132.592 751.559773 132.592 
C 733.515519 132.592 715.646724 136.146324 698.976008 143.051561 
C 682.305291 149.956798 667.156858 160.078658 654.397644 172.837871 
C 641.63843 185.597085 631.516571 200.745519 624.611334 217.416235 
C 617.706097 234.086951 614.151773 251.955747 614.151773 270 
C 614.151773 288.044253 617.706097 305.913049 624.611334 322.583765 
C 631.516571 339.254481 641.63843 354.402915 654.397644 367.162129 
C 667.156858 379.921342 682.305291 390.043202 698.976008 396.948439 
C 715.646724 403.853676 733.515519 407.408 751.559773 407.408 
C 769.604026 407.408 787.472822 403.853676 804.143538 396.948439 
C 820.814254 390.043202 835.962687 379.921342 848.721901 367.162129 
C 861.481115 354.402915 871.602975 339.254481 878.508212 322.583765 
C 885.413448 305.913049 888.967773 288.044253 888.967773 270 
" clip-path="url(#p7aff3a8109)" style="fill: none; stroke: #b0b0b0; stroke-width: 0.8; stroke-linecap: square"/>
     </g>
     <g id="text_25">
      <!-- 0.8 -->
      <g transform="translate(878.508212 215.336547) scale(0.1 -0.1)">
       <use xlink:href="#DejaVuSans-30"/>
       <use xlink:href="#DejaVuSans-2e" x="63.623047"/>
       <use xlink:href="#DejaVuSans-38" x="95.410156"/>
      </g>
     </g>
    </g>
    <g id="ytick_10">
     <g id="line2d_26">
      <path d="M 923.319773 270 
C 923.319773 247.444683 918.876867 225.108689 910.245321 204.270294 
C 901.613775 183.431898 888.961451 164.496357 873.012433 148.547339 
C 857.063416 132.598322 838.127874 119.945997 817.289479 111.314451 
C 796.451084 102.682906 774.115089 98.24 751.559773 98.24 
C 729.004456 98.24 706.668462 102.682906 685.830066 111.314451 
C 664.991671 119.945997 646.056129 132.598322 630.107112 148.547339 
C 614.158095 164.496357 601.50577 183.431898 592.874224 204.270294 
C 584.242678 225.108689 579.799773 247.444683 579.799773 270 
C 579.799773 292.555317 584.242678 314.891311 592.874224 335.729706 
C 601.50577 356.568102 614.158095 375.503643 630.107112 391.452661 
C 646.056129 407.401678 664.991671 420.054003 685.830066 428.685549 
C 706.668462 437.317094 729.004456 441.76 751.559773 441.76 
C 774.115089 441.76 796.451084 437.317094 817.289479 428.685549 
C 838.127874 420.054003 857.063416 407.401678 873.012433 391.452661 
C 888.961451 375.503643 901.613775 356.568102 910.245321 335.729706 
C 918.876867 314.891311 923.319773 292.555317 923.319773 270 
" clip-path="url(#p7aff3a8109)" style="fill: none; stroke: #b0b0b0; stroke-width: 0.8; stroke-linecap: square"/>
     </g>
     <g id="text_26">
      <!-- 1.0 -->
      <g transform="translate(910.245321 202.190606) scale(0.1 -0.1)">
       <use xlink:href="#DejaVuSans-31"/>
       <use xlink:href="#DejaVuSans-2e" x="63.623047"/>
       <use xlink:href="#DejaVuSans-30" x="95.410156"/>
      </g>
     </g>
    </g>
   </g>
   <g id="patch_5">
    <path d="M 923.319773 270 
C 923.319773 247.444683 918.876867 225.108689 910.245321 204.270294 
C 901.613775 183.431898 888.961451 164.496357 873.012433 148.547339 
C 857.063416 132.598322 838.127874 119.945997 817.289479 111.314451 
C 796.451084 102.682906 774.115089 98.24 751.559773 98.24 
C 729.004456 98.24 706.668462 102.682906 685.830066 111.314451 
C 664.991671 119.945997 646.056129 132.598322 630.107112 148.547339 
C 614.158095 164.496357 601.50577 183.431898 592.874224 204.270294 
C 584.242678 225.108689 579.799773 247.444683 579.799773 270 
C 579.799773 292.555317 584.242678 314.891311 592.874224 335.729706 
C 601.50577 356.568102 614.158095 375.503643 630.107112 391.452661 
C 646.056129 407.401678 664.991671 420.054003 685.830066 428.685549 
C 706.668462 437.317094 729.004456 441.76 751.559773 441.76 
C 774.115089 441.76 796.451084 437.317094 817.289479 428.685549 
C 838.127874 420.054003 857.063416 407.401678 873.012433 391.452661 
C 888.961451 375.503643 901.613775 356.568102 910.245321 335.729706 
C 918.876867 314.891311 923.319773 292.555317 923.319773 270 
" style="fill: none; stroke: #000000; stroke-width: 0.8; stroke-linejoin: miter; stroke-linecap: square"/>
   </g>
  </g>
  <g id="axes_3">
   <g id="patch_6">
    <path d="M 428.200227 662.4 
C 428.200227 639.844683 423.757322 617.508689 415.125776 596.670294 
C 406.49423 575.831898 393.841905 556.896357 377.892888 540.947339 
C 361.943871 524.998322 343.008329 512.345997 322.169934 503.714451 
C 301.331538 495.082906 278.995544 490.64 256.440227 490.64 
C 233.884911 490.64 211.548916 495.082906 190.710521 503.714451 
C 169.872126 512.345997 150.936584 524.998322 134.987567 540.947339 
C 119.038549 556.896357 106.386225 575.831898 97.754679 596.670294 
C 89.123133 617.508689 84.680227 639.844683 84.680227 662.4 
C 84.680227 684.955317 89.123133 707.291311 97.754679 728.129706 
C 106.386225 748.968102 119.038549 767.903643 134.987567 783.852661 
C 150.936584 799.801678 169.872126 812.454003 190.710521 821.085549 
C 211.548916 829.717094 233.884911 834.16 256.440227 834.16 
C 278.995544 834.16 301.331538 829.717094 322.169934 821.085549 
C 343.008329 812.454003 361.943871 799.801678 377.892888 783.852661 
C 393.841905 767.903643 406.49423 748.968102 415.125776 728.129706 
C 423.757322 707.291311 428.200227 684.955317 428.200227 662.4 
M 256.440227 662.4 
C 256.440227 662.4 256.440227 662.4 256.440227 662.4 
C 256.440227 662.4 256.440227 662.4 256.440227 662.4 
C 256.440227 662.4 256.440227 662.4 256.440227 662.4 
C 256.440227 662.4 256.440227 662.4 256.440227 662.4 
C 256.440227 662.4 256.440227 662.4 256.440227 662.4 
C 256.440227 662.4 256.440227 662.4 256.440227 662.4 
C 256.440227 662.4 256.440227 662.4 256.440227 662.4 
C 256.440227 662.4 256.440227 662.4 256.440227 662.4 
C 256.440227 662.4 256.440227 662.4 256.440227 662.4 
C 256.440227 662.4 256.440227 662.4 256.440227 662.4 
C 256.440227 662.4 256.440227 662.4 256.440227 662.4 
C 256.440227 662.4 256.440227 662.4 256.440227 662.4 
C 256.440227 662.4 256.440227 662.4 256.440227 662.4 
C 256.440227 662.4 256.440227 662.4 256.440227 662.4 
C 256.440227 662.4 256.440227 662.4 256.440227 662.4 
C 256.440227 662.4 256.440227 662.4 256.440227 662.4 
z
" style="fill: #ffffff"/>
   </g>
   <g id="matplotlib.axis_5">
    <g id="xtick_17">
     <g id="line2d_27">
      <path d="M 256.440227 662.4 
L 428.200227 662.4 
" clip-path="url(#p9683db525e)" style="fill: none; stroke: #b0b0b0; stroke-width: 0.8; stroke-linecap: square"/>
     </g>
     <g id="text_27">
      <!-- 0° -->
      <g transform="translate(436.518977 665.159375) scale(0.1 -0.1)">
       <use xlink:href="#DejaVuSans-30"/>
       <use xlink:href="#DejaVuSans-b0" x="63.623047"/>
      </g>
     </g>
    </g>
    <g id="xtick_18">
     <g id="line2d_28">
      <path d="M 256.440227 662.4 
L 377.892888 540.947339 
" clip-path="url(#p9683db525e)" style="fill: none; stroke: #b0b0b0; stroke-width: 0.8; stroke-linecap: square"/>
     </g>
     <g id="text_28">
      <!-- 45° -->
      <g transform="translate(378.929883 533.807219) scale(0.1 -0.1)">
       <use xlink:href="#DejaVuSans-34"/>
       <use xlink:href="#DejaVuSans-35" x="63.623047"/>
       <use xlink:href="#DejaVuSans-b0" x="127.246094"/>
      </g>
     </g>
    </g>
    <g id="xtick_19">
     <g id="line2d_29">
      <path d="M 256.440227 662.4 
L 256.440227 490.64 
" clip-path="url(#p9683db525e)" style="fill: none; stroke: #b0b0b0; stroke-width: 0.8; stroke-linecap: square"/>
     </g>
     <g id="text_29">
      <!-- 90° -->
      <g transform="translate(247.577727 479.399375) scale(0.1 -0.1)">
       <use xlink:href="#DejaVuSans-39"/>
       <use xlink:href="#DejaVuSans-30" x="63.623047"/>
       <use xlink:href="#DejaVuSans-b0" x="127.246094"/>
      </g>
     </g>
    </g>
    <g id="xtick_20">
     <g id="line2d_30">
      <path d="M 256.440227 662.4 
L 134.987567 540.947339 
" clip-path="url(#p9683db525e)" style="fill: none; stroke: #b0b0b0; stroke-width: 0.8; stroke-linecap: square"/>
     </g>
     <g id="text_30">
      <!-- 135° -->
      <g transform="translate(113.044322 533.807219) scale(0.1 -0.1)">
       <use xlink:href="#DejaVuSans-31"/>
       <use xlink:href="#DejaVuSans-33" x="63.623047"/>
       <use xlink:href="#DejaVuSans-35" x="127.246094"/>
       <use xlink:href="#DejaVuSans-b0" x="190.869141"/>
      </g>
     </g>
    </g>
    <g id="xtick_21">
     <g id="line2d_31">
      <path d="M 256.440227 662.4 
L 84.680227 662.4 
" clip-path="url(#p9683db525e)" style="fill: none; stroke: #b0b0b0; stroke-width: 0.8; stroke-linecap: square"/>
     </g>
     <g id="text_31">
      <!-- 180° -->
      <g transform="translate(58.636477 665.159375) scale(0.1 -0.1)">
       <use xlink:href="#DejaVuSans-31"/>
       <use xlink:href="#DejaVuSans-38" x="63.623047"/>
       <use xlink:href="#DejaVuSans-30" x="127.246094"/>
       <use xlink:href="#DejaVuSans-b0" x="190.869141"/>
      </g>
     </g>
    </g>
    <g id="xtick_22">
     <g id="line2d_32">
      <path d="M 256.440227 662.4 
L 134.987567 783.852661 
" clip-path="url(#p9683db525e)" style="fill: none; stroke: #b0b0b0; stroke-width: 0.8; stroke-linecap: square"/>
     </g>
     <g id="text_32">
      <!-- 225° -->
      <g transform="translate(113.044322 796.511531) scale(0.1 -0.1)">
       <use xlink:href="#DejaVuSans-32"/>
       <use xlink:href="#DejaVuSans-32" x="63.623047"/>
       <use xlink:href="#DejaVuSans-35" x="127.246094"/>
       <use xlink:href="#DejaVuSans-b0" x="190.869141"/>
      </g>
     </g>
    </g>
    <g id="xtick_23">
     <g id="line2d_33">
      <path d="M 256.440227 662.4 
L 256.440227 834.16 
" clip-path="url(#p9683db525e)" style="fill: none; stroke: #b0b0b0; stroke-width: 0.8; stroke-linecap: square"/>
     </g>
     <g id="text_33">
      <!-- 270° -->
      <g transform="translate(244.396477 850.919375) scale(0.1 -0.1)">
       <use xlink:href="#DejaVuSans-32"/>
       <use xlink:href="#DejaVuSans-37" x="63.623047"/>
       <use xlink:href="#DejaVuSans-30" x="127.246094"/>
       <use xlink:href="#DejaVuSans-b0" x="190.869141"/>
      </g>
     </g>
    </g>
    <g id="xtick_24">
     <g id="line2d_34">
      <path d="M 256.440227 662.4 
L 377.892888 783.852661 
" clip-path="url(#p9683db525e)" style="fill: none; stroke: #b0b0b0; stroke-width: 0.8; stroke-linecap: square"/>
     </g>
     <g id="text_34">
      <!-- 315° -->
      <g transform="translate(375.748633 796.511531) scale(0.1 -0.1)">
       <use xlink:href="#DejaVuSans-33"/>
       <use xlink:href="#DejaVuSans-31" x="63.623047"/>
       <use xlink:href="#DejaVuSans-35" x="127.246094"/>
       <use xlink:href="#DejaVuSans-b0" x="190.869141"/>
      </g>
     </g>
    </g>
   </g>
   <g id="matplotlib.axis_6">
    <g id="ytick_11">
     <g id="line2d_35">
      <path d="M 290.792227 662.4 
C 290.792227 657.888937 289.903646 653.421738 288.177337 649.254059 
C 286.451028 645.08638 283.920563 641.299271 280.730759 638.109468 
C 277.540956 634.919664 273.753848 632.389199 269.586169 630.66289 
C 265.418489 628.936581 260.951291 628.048 256.440227 628.048 
C 251.929164 628.048 247.461965 628.936581 243.294286 630.66289 
C 239.126607 632.389199 235.339499 634.919664 232.149695 638.109468 
C 228.959892 641.299271 226.429427 645.08638 224.703118 649.254059 
C 222.976808 653.421738 222.088227 657.888937 222.088227 662.4 
C 222.088227 666.911063 222.976808 671.378262 224.703118 675.545941 
C 226.429427 679.71362 228.959892 683.500729 232.149695 686.690532 
C 235.339499 689.880336 239.126607 692.410801 243.294286 694.13711 
C 247.461965 695.863419 251.929164 696.752 256.440227 696.752 
C 260.951291 696.752 265.418489 695.863419 269.586169 694.13711 
C 273.753848 692.410801 277.540956 689.880336 280.730759 686.690532 
C 283.920563 683.500729 286.451028 679.71362 288.177337 675.545941 
C 289.903646 671.378262 290.792227 666.911063 290.792227 662.4 
" clip-path="url(#p9683db525e)" style="fill: none; stroke: #b0b0b0; stroke-width: 0.8; stroke-linecap: square"/>
     </g>
     <g id="text_35">
      <!-- 0.2 -->
      <g transform="translate(288.177337 647.174371) scale(0.1 -0.1)">
       <use xlink:href="#DejaVuSans-30"/>
       <use xlink:href="#DejaVuSans-2e" x="63.623047"/>
       <use xlink:href="#DejaVuSans-32" x="95.410156"/>
      </g>
     </g>
    </g>
    <g id="ytick_12">
     <g id="line2d_36">
      <path d="M 325.144227 662.4 
C 325.144227 653.377873 323.367065 644.443476 319.914447 636.108117 
C 316.461828 627.772759 311.400898 620.198543 305.021292 613.818936 
C 298.641685 607.439329 291.067468 602.378399 282.73211 598.925781 
C 274.396752 595.473162 265.462354 593.696 256.440227 593.696 
C 247.418101 593.696 238.483703 595.473162 230.148345 598.925781 
C 221.812987 602.378399 214.23877 607.439329 207.859163 613.818936 
C 201.479556 620.198543 196.418626 627.772759 192.966008 636.108117 
C 189.513389 644.443476 187.736227 653.377873 187.736227 662.4 
C 187.736227 671.422127 189.513389 680.356524 192.966008 688.691883 
C 196.418626 697.027241 201.479556 704.601457 207.859163 710.981064 
C 214.23877 717.360671 221.812987 722.421601 230.148345 725.874219 
C 238.483703 729.326838 247.418101 731.104 256.440227 731.104 
C 265.462354 731.104 274.396752 729.326838 282.73211 725.874219 
C 291.067468 722.421601 298.641685 717.360671 305.021292 710.981064 
C 311.400898 704.601457 316.461828 697.027241 319.914447 688.691883 
C 323.367065 680.356524 325.144227 671.422127 325.144227 662.4 
" clip-path="url(#p9683db525e)" style="fill: none; stroke: #b0b0b0; stroke-width: 0.8; stroke-linecap: square"/>
     </g>
     <g id="text_36">
      <!-- 0.4 -->
      <g transform="translate(319.914447 634.02843) scale(0.1 -0.1)">
       <use xlink:href="#DejaVuSans-30"/>
       <use xlink:href="#DejaVuSans-2e" x="63.623047"/>
       <use xlink:href="#DejaVuSans-34" x="95.410156"/>
      </g>
     </g>
    </g>
    <g id="ytick_13">
     <g id="line2d_37">
      <path d="M 359.496227 662.4 
C 359.496227 648.86681 356.830484 635.465213 351.651556 622.962176 
C 346.472629 610.459139 338.881234 599.097814 329.311824 589.528404 
C 319.742413 579.958993 308.381088 572.367598 295.878051 567.188671 
C 283.375014 562.009743 269.973417 559.344 256.440227 559.344 
C 242.907037 559.344 229.505441 562.009743 217.002403 567.188671 
C 204.499366 572.367598 193.138041 579.958993 183.568631 589.528404 
C 173.99922 599.097814 166.407826 610.459139 161.228898 622.962176 
C 156.049971 635.465213 153.384227 648.86681 153.384227 662.4 
C 153.384227 675.93319 156.049971 689.334787 161.228898 701.837824 
C 166.407826 714.340861 173.99922 725.702186 183.568631 735.271596 
C 193.138041 744.841007 204.499366 752.432402 217.002403 757.611329 
C 229.505441 762.790257 242.907037 765.456 256.440227 765.456 
C 269.973417 765.456 283.375014 762.790257 295.878051 757.611329 
C 308.381088 752.432402 319.742413 744.841007 329.311824 735.271596 
C 338.881234 725.702186 346.472629 714.340861 351.651556 701.837824 
C 356.830484 689.334787 359.496227 675.93319 359.496227 662.4 
" clip-path="url(#p9683db525e)" style="fill: none; stroke: #b0b0b0; stroke-width: 0.8; stroke-linecap: square"/>
     </g>
     <g id="text_37">
      <!-- 0.6 -->
      <g transform="translate(351.651556 620.882489) scale(0.1 -0.1)">
       <use xlink:href="#DejaVuSans-30"/>
       <use xlink:href="#DejaVuSans-2e" x="63.623047"/>
       <use xlink:href="#DejaVuSans-36" x="95.410156"/>
      </g>
     </g>
    </g>
    <g id="ytick_14">
     <g id="line2d_38">
      <path d="M 393.848227 662.4 
C 393.848227 644.355747 390.293903 626.486951 383.388666 609.816235 
C 376.483429 593.145519 366.36157 577.997085 353.602356 565.237871 
C 340.843142 552.478658 325.694709 542.356798 309.023992 535.451561 
C 292.353276 528.546324 274.484481 524.992 256.440227 524.992 
C 238.395974 524.992 220.527178 528.546324 203.856462 535.451561 
C 187.185746 542.356798 172.037313 552.478658 159.278099 565.237871 
C 146.518885 577.997085 136.397025 593.145519 129.491788 609.816235 
C 122.586552 626.486951 119.032227 644.355747 119.032227 662.4 
C 119.032227 680.444253 122.586552 698.313049 129.491788 714.983765 
C 136.397025 731.654481 146.518885 746.802915 159.278099 759.562129 
C 172.037313 772.321342 187.185746 782.443202 203.856462 789.348439 
C 220.527178 796.253676 238.395974 799.808 256.440227 799.808 
C 274.484481 799.808 292.353276 796.253676 309.023992 789.348439 
C 325.694709 782.443202 340.843142 772.321342 353.602356 759.562129 
C 366.36157 746.802915 376.483429 731.654481 383.388666 714.983765 
C 390.293903 698.313049 393.848227 680.444253 393.848227 662.4 
" clip-path="url(#p9683db525e)" style="fill: none; stroke: #b0b0b0; stroke-width: 0.8; stroke-linecap: square"/>
     </g>
     <g id="text_38">
      <!-- 0.8 -->
      <g transform="translate(383.388666 607.736547) scale(0.1 -0.1)">
       <use xlink:href="#DejaVuSans-30"/>
       <use xlink:href="#DejaVuSans-2e" x="63.623047"/>
       <use xlink:href="#DejaVuSans-38" x="95.410156"/>
      </g>
     </g>
    </g>
    <g id="ytick_15">
     <g id="line2d_39">
      <path d="M 428.200227 662.4 
C 428.200227 639.844683 423.757322 617.508689 415.125776 596.670294 
C 406.49423 575.831898 393.841905 556.896357 377.892888 540.947339 
C 361.943871 524.998322 343.008329 512.345997 322.169934 503.714451 
C 301.331538 495.082906 278.995544 490.64 256.440227 490.64 
C 233.884911 490.64 211.548916 495.082906 190.710521 503.714451 
C 169.872126 512.345997 150.936584 524.998322 134.987567 540.947339 
C 119.038549 556.896357 106.386225 575.831898 97.754679 596.670294 
C 89.123133 617.508689 84.680227 639.844683 84.680227 662.4 
C 84.680227 684.955317 89.123133 707.291311 97.754679 728.129706 
C 106.386225 748.968102 119.038549 767.903643 134.987567 783.852661 
C 150.936584 799.801678 169.872126 812.454003 190.710521 821.085549 
C 211.548916 829.717094 233.884911 834.16 256.440227 834.16 
C 278.995544 834.16 301.331538 829.717094 322.169934 821.085549 
C 343.008329 812.454003 361.943871 799.801678 377.892888 783.852661 
C 393.841905 767.903643 406.49423 748.968102 415.125776 728.129706 
C 423.757322 707.291311 428.200227 684.955317 428.200227 662.4 
" clip-path="url(#p9683db525e)" style="fill: none; stroke: #b0b0b0; stroke-width: 0.8; stroke-linecap: square"/>
     </g>
     <g id="text_39">
      <!-- 1.0 -->
      <g transform="translate(415.125776 594.590606) scale(0.1 -0.1)">
       <use xlink:href="#DejaVuSans-31"/>
       <use xlink:href="#DejaVuSans-2e" x="63.623047"/>
       <use xlink:href="#DejaVuSans-30" x="95.410156"/>
      </g>
     </g>
    </g>
   </g>
   <g id="patch_7">
    <path d="M 428.200227 662.4 
C 428.200227 639.844683 423.757322 617.508689 415.125776 596.670294 
C 406.49423 575.831898 393.841905 556.896357 377.892888 540.947339 
C 361.943871 524.998322 343.008329 512.345997 322.169934 503.714451 
C 301.331538 495.082906 278.995544 490.64 256.440227 490.64 
C 233.884911 490.64 211.548916 495.082906 190.710521 503.714451 
C 169.872126 512.345997 150.936584 524.998322 134.987567 540.947339 
C 119.038549 556.896357 106.386225 575.831898 97.754679 596.670294 
C 89.123133 617.508689 84.680227 639.844683 84.680227 662.4 
C 84.680227 684.955317 89.123133 707.291311 97.754679 728.129706 
C 106.386225 748.968102 119.038549 767.903643 134.987567 783.852661 
C 150.936584 799.801678 169.872126 812.454003 190.710521 821.085549 
C 211.548916 829.717094 233.884911 834.16 256.440227 834.16 
C 278.995544 834.16 301.331538 829.717094 322.169934 821.085549 
C 343.008329 812.454003 361.943871 799.801678 377.892888 783.852661 
C 393.841905 767.903643 406.49423 748.968102 415.125776 728.129706 
C 423.757322 707.291311 428.200227 684.955317 428.200227 662.4 
" style="fill: none; stroke: #000000; stroke-width: 0.8; stroke-linejoin: miter; stroke-linecap: square"/>
   </g>
  </g>
  <g id="axes_4">
   <g id="patch_8">
    <path d="M 923.319773 662.4 
C 923.319773 639.844683 918.876867 617.508689 910.245321 596.670294 
C 901.613775 575.831898 888.961451 556.896357 873.012433 540.947339 
C 857.063416 524.998322 838.127874 512.345997 817.289479 503.714451 
C 796.451084 495.082906 774.115089 490.64 751.559773 490.64 
C 729.004456 490.64 706.668462 495.082906 685.830066 503.714451 
C 664.991671 512.345997 646.056129 524.998322 630.107112 540.947339 
C 614.158095 556.896357 601.50577 575.831898 592.874224 596.670294 
C 584.242678 617.508689 579.799773 639.844683 579.799773 662.4 
C 579.799773 684.955317 584.242678 707.291311 592.874224 728.129706 
C 601.50577 748.968102 614.158095 767.903643 630.107112 783.852661 
C 646.056129 799.801678 664.991671 812.454003 685.830066 821.085549 
C 706.668462 829.717094 729.004456 834.16 751.559773 834.16 
C 774.115089 834.16 796.451084 829.717094 817.289479 821.085549 
C 838.127874 812.454003 857.063416 799.801678 873.012433 783.852661 
C 888.961451 767.903643 901.613775 748.968102 910.245321 728.129706 
C 918.876867 707.291311 923.319773 684.955317 923.319773 662.4 
M 751.559773 662.4 
C 751.559773 662.4 751.559773 662.4 751.559773 662.4 
C 751.559773 662.4 751.559773 662.4 751.559773 662.4 
C 751.559773 662.4 751.559773 662.4 751.559773 662.4 
C 751.559773 662.4 751.559773 662.4 751.559773 662.4 
C 751.559773 662.4 751.559773 662.4 751.559773 662.4 
C 751.559773 662.4 751.559773 662.4 751.559773 662.4 
C 751.559773 662.4 751.559773 662.4 751.559773 662.4 
C 751.559773 662.4 751.559773 662.4 751.559773 662.4 
C 751.559773 662.4 751.559773 662.4 751.559773 662.4 
C 751.559773 662.4 751.559773 662.4 751.559773 662.4 
C 751.559773 662.4 751.559773 662.4 751.559773 662.4 
C 751.559773 662.4 751.559773 662.4 751.559773 662.4 
C 751.559773 662.4 751.559773 662.4 751.559773 662.4 
C 751.559773 662.4 751.559773 662.4 751.559773 662.4 
C 751.559773 662.4 751.559773 662.4 751.559773 662.4 
C 751.559773 662.4 751.559773 662.4 751.559773 662.4 
z
" style="fill: #ffffff"/>
   </g>
   <g id="matplotlib.axis_7">
    <g id="xtick_25">
     <g id="line2d_40">
      <path d="M 751.559773 662.4 
L 923.319773 662.4 
" clip-path="url(#p3668c4e3ab)" style="fill: none; stroke: #b0b0b0; stroke-width: 0.8; stroke-linecap: square"/>
     </g>
     <g id="text_40">
      <!-- 0° -->
      <g transform="translate(931.638523 665.159375) scale(0.1 -0.1)">
       <use xlink:href="#DejaVuSans-30"/>
       <use xlink:href="#DejaVuSans-b0" x="63.623047"/>
      </g>
     </g>
    </g>
    <g id="xtick_26">
     <g id="line2d_41">
      <path d="M 751.559773 662.4 
L 873.012433 540.947339 
" clip-path="url(#p3668c4e3ab)" style="fill: none; stroke: #b0b0b0; stroke-width: 0.8; stroke-linecap: square"/>
     </g>
     <g id="text_41">
      <!-- 45° -->
      <g transform="translate(874.049428 533.807219) scale(0.1 -0.1)">
       <use xlink:href="#DejaVuSans-34"/>
       <use xlink:href="#DejaVuSans-35" x="63.623047"/>
       <use xlink:href="#DejaVuSans-b0" x="127.246094"/>
      </g>
     </g>
    </g>
    <g id="xtick_27">
     <g id="line2d_42">
      <path d="M 751.559773 662.4 
L 751.559773 490.64 
" clip-path="url(#p3668c4e3ab)" style="fill: none; stroke: #b0b0b0; stroke-width: 0.8; stroke-linecap: square"/>
     </g>
     <g id="text_42">
      <!-- 90° -->
      <g transform="translate(742.697273 479.399375) scale(0.1 -0.1)">
       <use xlink:href="#DejaVuSans-39"/>
       <use xlink:href="#DejaVuSans-30" x="63.623047"/>
       <use xlink:href="#DejaVuSans-b0" x="127.246094"/>
      </g>
     </g>
    </g>
    <g id="xtick_28">
     <g id="line2d_43">
      <path d="M 751.559773 662.4 
L 630.107112 540.947339 
" clip-path="url(#p3668c4e3ab)" style="fill: none; stroke: #b0b0b0; stroke-width: 0.8; stroke-linecap: square"/>
     </g>
     <g id="text_43">
      <!-- 135° -->
      <g transform="translate(608.163867 533.807219) scale(0.1 -0.1)">
       <use xlink:href="#DejaVuSans-31"/>
       <use xlink:href="#DejaVuSans-33" x="63.623047"/>
       <use xlink:href="#DejaVuSans-35" x="127.246094"/>
       <use xlink:href="#DejaVuSans-b0" x="190.869141"/>
      </g>
     </g>
    </g>
    <g id="xtick_29">
     <g id="line2d_44">
      <path d="M 751.559773 662.4 
L 579.799773 662.4 
" clip-path="url(#p3668c4e3ab)" style="fill: none; stroke: #b0b0b0; stroke-width: 0.8; stroke-linecap: square"/>
     </g>
     <g id="text_44">
      <!-- 180° -->
      <g transform="translate(553.756023 665.159375) scale(0.1 -0.1)">
       <use xlink:href="#DejaVuSans-31"/>
       <use xlink:href="#DejaVuSans-38" x="63.623047"/>
       <use xlink:href="#DejaVuSans-30" x="127.246094"/>
       <use xlink:href="#DejaVuSans-b0" x="190.869141"/>
      </g>
     </g>
    </g>
    <g id="xtick_30">
     <g id="line2d_45">
      <path d="M 751.559773 662.4 
L 630.107112 783.852661 
" clip-path="url(#p3668c4e3ab)" style="fill: none; stroke: #b0b0b0; stroke-width: 0.8; stroke-linecap: square"/>
     </g>
     <g id="text_45">
      <!-- 225° -->
      <g transform="translate(608.163867 796.511531) scale(0.1 -0.1)">
       <use xlink:href="#DejaVuSans-32"/>
       <use xlink:href="#DejaVuSans-32" x="63.623047"/>
       <use xlink:href="#DejaVuSans-35" x="127.246094"/>
       <use xlink:href="#DejaVuSans-b0" x="190.869141"/>
      </g>
     </g>
    </g>
    <g id="xtick_31">
     <g id="line2d_46">
      <path d="M 751.559773 662.4 
L 751.559773 834.16 
" clip-path="url(#p3668c4e3ab)" style="fill: none; stroke: #b0b0b0; stroke-width: 0.8; stroke-linecap: square"/>
     </g>
     <g id="text_46">
      <!-- 270° -->
      <g transform="translate(739.516023 850.919375) scale(0.1 -0.1)">
       <use xlink:href="#DejaVuSans-32"/>
       <use xlink:href="#DejaVuSans-37" x="63.623047"/>
       <use xlink:href="#DejaVuSans-30" x="127.246094"/>
       <use xlink:href="#DejaVuSans-b0" x="190.869141"/>
      </g>
     </g>
    </g>
    <g id="xtick_32">
     <g id="line2d_47">
      <path d="M 751.559773 662.4 
L 873.012433 783.852661 
" clip-path="url(#p3668c4e3ab)" style="fill: none; stroke: #b0b0b0; stroke-width: 0.8; stroke-linecap: square"/>
     </g>
     <g id="text_47">
      <!-- 315° -->
      <g transform="translate(870.868178 796.511531) scale(0.1 -0.1)">
       <use xlink:href="#DejaVuSans-33"/>
       <use xlink:href="#DejaVuSans-31" x="63.623047"/>
       <use xlink:href="#DejaVuSans-35" x="127.246094"/>
       <use xlink:href="#DejaVuSans-b0" x="190.869141"/>
      </g>
     </g>
    </g>
   </g>
   <g id="matplotlib.axis_8">
    <g id="ytick_16">
     <g id="line2d_48">
      <path d="M 785.911773 662.4 
C 785.911773 657.888937 785.023192 653.421738 783.296882 649.254059 
C 781.570573 645.08638 779.040108 641.299271 775.850305 638.109468 
C 772.660501 634.919664 768.873393 632.389199 764.705714 630.66289 
C 760.538035 628.936581 756.070836 628.048 751.559773 628.048 
C 747.048709 628.048 742.581511 628.936581 738.413831 630.66289 
C 734.246152 632.389199 730.459044 634.919664 727.269241 638.109468 
C 724.079437 641.299271 721.548972 645.08638 719.822663 649.254059 
C 718.096354 653.421738 717.207773 657.888937 717.207773 662.4 
C 717.207773 666.911063 718.096354 671.378262 719.822663 675.545941 
C 721.548972 679.71362 724.079437 683.500729 727.269241 686.690532 
C 730.459044 689.880336 734.246152 692.410801 738.413831 694.13711 
C 742.581511 695.863419 747.048709 696.752 751.559773 696.752 
C 756.070836 696.752 760.538035 695.863419 764.705714 694.13711 
C 768.873393 692.410801 772.660501 689.880336 775.850305 686.690532 
C 779.040108 683.500729 781.570573 679.71362 783.296882 675.545941 
C 785.023192 671.378262 785.911773 666.911063 785.911773 662.4 
" clip-path="url(#p3668c4e3ab)" style="fill: none; stroke: #b0b0b0; stroke-width: 0.8; stroke-linecap: square"/>
     </g>
     <g id="text_48">
      <!-- 0.2 -->
      <g transform="translate(783.296882 647.174371) scale(0.1 -0.1)">
       <use xlink:href="#DejaVuSans-30"/>
       <use xlink:href="#DejaVuSans-2e" x="63.623047"/>
       <use xlink:href="#DejaVuSans-32" x="95.410156"/>
      </g>
     </g>
    </g>
    <g id="ytick_17">
     <g id="line2d_49">
      <path d="M 820.263773 662.4 
C 820.263773 653.377873 818.486611 644.443476 815.033992 636.108117 
C 811.581374 627.772759 806.520444 620.198543 800.140837 613.818936 
C 793.76123 607.439329 786.187013 602.378399 777.851655 598.925781 
C 769.516297 595.473162 760.581899 593.696 751.559773 593.696 
C 742.537646 593.696 733.603248 595.473162 725.26789 598.925781 
C 716.932532 602.378399 709.358315 607.439329 702.978708 613.818936 
C 696.599102 620.198543 691.538172 627.772759 688.085553 636.108117 
C 684.632935 644.443476 682.855773 653.377873 682.855773 662.4 
C 682.855773 671.422127 684.632935 680.356524 688.085553 688.691883 
C 691.538172 697.027241 696.599102 704.601457 702.978708 710.981064 
C 709.358315 717.360671 716.932532 722.421601 725.26789 725.874219 
C 733.603248 729.326838 742.537646 731.104 751.559773 731.104 
C 760.581899 731.104 769.516297 729.326838 777.851655 725.874219 
C 786.187013 722.421601 793.76123 717.360671 800.140837 710.981064 
C 806.520444 704.601457 811.581374 697.027241 815.033992 688.691883 
C 818.486611 680.356524 820.263773 671.422127 820.263773 662.4 
" clip-path="url(#p3668c4e3ab)" style="fill: none; stroke: #b0b0b0; stroke-width: 0.8; stroke-linecap: square"/>
     </g>
     <g id="text_49">
      <!-- 0.4 -->
      <g transform="translate(815.033992 634.02843) scale(0.1 -0.1)">
       <use xlink:href="#DejaVuSans-30"/>
       <use xlink:href="#DejaVuSans-2e" x="63.623047"/>
       <use xlink:href="#DejaVuSans-34" x="95.410156"/>
      </g>
     </g>
    </g>
    <g id="ytick_18">
     <g id="line2d_50">
      <path d="M 854.615773 662.4 
C 854.615773 648.86681 851.950029 635.465213 846.771102 622.962176 
C 841.592174 610.459139 834.00078 599.097814 824.431369 589.528404 
C 814.861959 579.958993 803.500634 572.367598 790.997597 567.188671 
C 778.494559 562.009743 765.092963 559.344 751.559773 559.344 
C 738.026583 559.344 724.624986 562.009743 712.121949 567.188671 
C 699.618912 572.367598 688.257587 579.958993 678.688176 589.528404 
C 669.118766 599.097814 661.527371 610.459139 656.348444 622.962176 
C 651.169516 635.465213 648.503773 648.86681 648.503773 662.4 
C 648.503773 675.93319 651.169516 689.334787 656.348444 701.837824 
C 661.527371 714.340861 669.118766 725.702186 678.688176 735.271596 
C 688.257587 744.841007 699.618912 752.432402 712.121949 757.611329 
C 724.624986 762.790257 738.026583 765.456 751.559773 765.456 
C 765.092963 765.456 778.494559 762.790257 790.997597 757.611329 
C 803.500634 752.432402 814.861959 744.841007 824.431369 735.271596 
C 834.00078 725.702186 841.592174 714.340861 846.771102 701.837824 
C 851.950029 689.334787 854.615773 675.93319 854.615773 662.4 
" clip-path="url(#p3668c4e3ab)" style="fill: none; stroke: #b0b0b0; stroke-width: 0.8; stroke-linecap: square"/>
     </g>
     <g id="text_50">
      <!-- 0.6 -->
      <g transform="translate(846.771102 620.882489) scale(0.1 -0.1)">
       <use xlink:href="#DejaVuSans-30"/>
       <use xlink:href="#DejaVuSans-2e" x="63.623047"/>
       <use xlink:href="#DejaVuSans-36" x="95.410156"/>
      </g>
     </g>
    </g>
    <g id="ytick_19">
     <g id="line2d_51">
      <path d="M 888.967773 662.4 
C 888.967773 644.355747 885.413448 626.486951 878.508212 609.816235 
C 871.602975 593.145519 861.481115 577.997085 848.721901 565.237871 
C 835.962687 552.478658 820.814254 542.356798 804.143538 535.451561 
C 787.472822 528.546324 769.604026 524.992 751.559773 524.992 
C 733.515519 524.992 715.646724 528.546324 698.976008 535.451561 
C 682.305291 542.356798 667.156858 552.478658 654.397644 565.237871 
C 641.63843 577.997085 631.516571 593.145519 624.611334 609.816235 
C 617.706097 626.486951 614.151773 644.355747 614.151773 662.4 
C 614.151773 680.444253 617.706097 698.313049 624.611334 714.983765 
C 631.516571 731.654481 641.63843 746.802915 654.397644 759.562129 
C 667.156858 772.321342 682.305291 782.443202 698.976008 789.348439 
C 715.646724 796.253676 733.515519 799.808 751.559773 799.808 
C 769.604026 799.808 787.472822 796.253676 804.143538 789.348439 
C 820.814254 782.443202 835.962687 772.321342 848.721901 759.562129 
C 861.481115 746.802915 871.602975 731.654481 878.508212 714.983765 
C 885.413448 698.313049 888.967773 680.444253 888.967773 662.4 
" clip-path="url(#p3668c4e3ab)" style="fill: none; stroke: #b0b0b0; stroke-width: 0.8; stroke-linecap: square"/>
     </g>
     <g id="text_51">
      <!-- 0.8 -->
      <g transform="translate(878.508212 607.736547) scale(0.1 -0.1)">
       <use xlink:href="#DejaVuSans-30"/>
       <use xlink:href="#DejaVuSans-2e" x="63.623047"/>
       <use xlink:href="#DejaVuSans-38" x="95.410156"/>
      </g>
     </g>
    </g>
    <g id="ytick_20">
     <g id="line2d_52">
      <path d="M 923.319773 662.4 
C 923.319773 639.844683 918.876867 617.508689 910.245321 596.670294 
C 901.613775 575.831898 888.961451 556.896357 873.012433 540.947339 
C 857.063416 524.998322 838.127874 512.345997 817.289479 503.714451 
C 796.451084 495.082906 774.115089 490.64 751.559773 490.64 
C 729.004456 490.64 706.668462 495.082906 685.830066 503.714451 
C 664.991671 512.345997 646.056129 524.998322 630.107112 540.947339 
C 614.158095 556.896357 601.50577 575.831898 592.874224 596.670294 
C 584.242678 617.508689 579.799773 639.844683 579.799773 662.4 
C 579.799773 684.955317 584.242678 707.291311 592.874224 728.129706 
C 601.50577 748.968102 614.158095 767.903643 630.107112 783.852661 
C 646.056129 799.801678 664.991671 812.454003 685.830066 821.085549 
C 706.668462 829.717094 729.004456 834.16 751.559773 834.16 
C 774.115089 834.16 796.451084 829.717094 817.289479 821.085549 
C 838.127874 812.454003 857.063416 799.801678 873.012433 783.852661 
C 888.961451 767.903643 901.613775 748.968102 910.245321 728.129706 
C 918.876867 707.291311 923.319773 684.955317 923.319773 662.4 
" clip-path="url(#p3668c4e3ab)" style="fill: none; stroke: #b0b0b0; stroke-width: 0.8; stroke-linecap: square"/>
     </g>
     <g id="text_52">
      <!-- 1.0 -->
      <g transform="translate(910.245321 594.590606) scale(0.1 -0.1)">
       <use xlink:href="#DejaVuSans-31"/>
       <use xlink:href="#DejaVuSans-2e" x="63.623047"/>
       <use xlink:href="#DejaVuSans-30" x="95.410156"/>
      </g>
     </g>
    </g>
   </g>
   <g id="patch_9">
    <path d="M 923.319773 662.4 
C 923.319773 639.844683 918.876867 617.508689 910.245321 596.670294 
C 901.613775 575.831898 888.961451 556.896357 873.012433 540.947339 
C 857.063416 524.998322 838.127874 512.345997 817.289479 503.714451 
C 796.451084 495.082906 774.115089 490.64 751.559773 490.64 
C 729.004456 490.64 706.668462 495.082906 685.830066 503.714451 
C 664.991671 512.345997 646.056129 524.998322 630.107112 540.947339 
C 614.158095 556.896357 601.50577 575.831898 592.874224 596.670294 
C 584.242678 617.508689 579.799773 639.844683 579.799773 662.4 
C 579.799773 684.955317 584.242678 707.291311 592.874224 728.129706 
C 601.50577 748.968102 614.158095 767.903643 630.107112 783.852661 
C 646.056129 799.801678 664.991671 812.454003 685.830066 821.085549 
C 706.668462 829.717094 729.004456 834.16 751.559773 834.16 
C 774.115089 834.16 796.451084 829.717094 817.289479 821.085549 
C 838.127874 812.454003 857.063416 799.801678 873.012433 783.852661 
C 888.961451 767.903643 901.613775 748.968102 910.245321 728.129706 
C 918.876867 707.291311 923.319773 684.955317 923.319773 662.4 
" style="fill: none; stroke: #000000; stroke-width: 0.8; stroke-linejoin: miter; stroke-linecap: square"/>
   </g>
  </g>
  <g id="text_53">
   <!-- Radar Charts for goldenbear -->
   <g transform="translate(390.21 29.4375) scale(0.16 -0.16)">
    <defs>
     <path id="DejaVuSans-52" d="M 2841 2188 
Q 3044 2119 3236 1894 
Q 3428 1669 3622 1275 
L 4263 0 
L 3584 0 
L 2988 1197 
Q 2756 1666 2539 1819 
Q 2322 1972 1947 1972 
L 1259 1972 
L 1259 0 
L 628 0 
L 628 4666 
L 2053 4666 
Q 2853 4666 3247 4331 
Q 3641 3997 3641 3322 
Q 3641 2881 3436 2590 
Q 3231 2300 2841 2188 
z
M 1259 4147 
L 1259 2491 
L 2053 2491 
Q 2509 2491 2742 2702 
Q 2975 2913 2975 3322 
Q 2975 3731 2742 3939 
Q 2509 4147 2053 4147 
L 1259 4147 
z
" transform="scale(0.015625)"/>
     <path id="DejaVuSans-61" d="M 2194 1759 
Q 1497 1759 1228 1600 
Q 959 1441 959 1056 
Q 959 750 1161 570 
Q 1363 391 1709 391 
Q 2188 391 2477 730 
Q 2766 1069 2766 1631 
L 2766 1759 
L 2194 1759 
z
M 3341 1997 
L 3341 0 
L 2766 0 
L 2766 531 
Q 2569 213 2275 61 
Q 1981 -91 1556 -91 
Q 1019 -91 701 211 
Q 384 513 384 1019 
Q 384 1609 779 1909 
Q 1175 2209 1959 2209 
L 2766 2209 
L 2766 2266 
Q 2766 2663 2505 2880 
Q 2244 3097 1772 3097 
Q 1472 3097 1187 3025 
Q 903 2953 641 2809 
L 641 3341 
Q 956 3463 1253 3523 
Q 1550 3584 1831 3584 
Q 2591 3584 2966 3190 
Q 3341 2797 3341 1997 
z
" transform="scale(0.015625)"/>
     <path id="DejaVuSans-64" d="M 2906 2969 
L 2906 4863 
L 3481 4863 
L 3481 0 
L 2906 0 
L 2906 525 
Q 2725 213 2448 61 
Q 2172 -91 1784 -91 
Q 1150 -91 751 415 
Q 353 922 353 1747 
Q 353 2572 751 3078 
Q 1150 3584 1784 3584 
Q 2172 3584 2448 3432 
Q 2725 3281 2906 2969 
z
M 947 1747 
Q 947 1113 1208 752 
Q 1469 391 1925 391 
Q 2381 391 2643 752 
Q 2906 1113 2906 1747 
Q 2906 2381 2643 2742 
Q 2381 3103 1925 3103 
Q 1469 3103 1208 2742 
Q 947 2381 947 1747 
z
" transform="scale(0.015625)"/>
     <path id="DejaVuSans-72" d="M 2631 2963 
Q 2534 3019 2420 3045 
Q 2306 3072 2169 3072 
Q 1681 3072 1420 2755 
Q 1159 2438 1159 1844 
L 1159 0 
L 581 0 
L 581 3500 
L 1159 3500 
L 1159 2956 
Q 1341 3275 1631 3429 
Q 1922 3584 2338 3584 
Q 2397 3584 2469 3576 
Q 2541 3569 2628 3553 
L 2631 2963 
z
" transform="scale(0.015625)"/>
     <path id="DejaVuSans-20" transform="scale(0.015625)"/>
     <path id="DejaVuSans-43" d="M 4122 4306 
L 4122 3641 
Q 3803 3938 3442 4084 
Q 3081 4231 2675 4231 
Q 1875 4231 1450 3742 
Q 1025 3253 1025 2328 
Q 1025 1406 1450 917 
Q 1875 428 2675 428 
Q 3081 428 3442 575 
Q 3803 722 4122 1019 
L 4122 359 
Q 3791 134 3420 21 
Q 3050 -91 2638 -91 
Q 1578 -91 968 557 
Q 359 1206 359 2328 
Q 359 3453 968 4101 
Q 1578 4750 2638 4750 
Q 3056 4750 3426 4639 
Q 3797 4528 4122 4306 
z
" transform="scale(0.015625)"/>
     <path id="DejaVuSans-68" d="M 3513 2113 
L 3513 0 
L 2938 0 
L 2938 2094 
Q 2938 2591 2744 2837 
Q 2550 3084 2163 3084 
Q 1697 3084 1428 2787 
Q 1159 2491 1159 1978 
L 1159 0 
L 581 0 
L 581 4863 
L 1159 4863 
L 1159 2956 
Q 1366 3272 1645 3428 
Q 1925 3584 2291 3584 
Q 2894 3584 3203 3211 
Q 3513 2838 3513 2113 
z
" transform="scale(0.015625)"/>
     <path id="DejaVuSans-74" d="M 1172 4494 
L 1172 3500 
L 2356 3500 
L 2356 3053 
L 1172 3053 
L 1172 1153 
Q 1172 725 1289 603 
Q 1406 481 1766 481 
L 2356 481 
L 2356 0 
L 1766 0 
Q 1100 0 847 248 
Q 594 497 594 1153 
L 594 3053 
L 172 3053 
L 172 3500 
L 594 3500 
L 594 4494 
L 1172 4494 
z
" transform="scale(0.015625)"/>
     <path id="DejaVuSans-73" d="M 2834 3397 
L 2834 2853 
Q 2591 2978 2328 3040 
Q 2066 3103 1784 3103 
Q 1356 3103 1142 2972 
Q 928 2841 928 2578 
Q 928 2378 1081 2264 
Q 1234 2150 1697 2047 
L 1894 2003 
Q 2506 1872 2764 1633 
Q 3022 1394 3022 966 
Q 3022 478 2636 193 
Q 2250 -91 1575 -91 
Q 1294 -91 989 -36 
Q 684 19 347 128 
L 347 722 
Q 666 556 975 473 
Q 1284 391 1588 391 
Q 1994 391 2212 530 
Q 2431 669 2431 922 
Q 2431 1156 2273 1281 
Q 2116 1406 1581 1522 
L 1381 1569 
Q 847 1681 609 1914 
Q 372 2147 372 2553 
Q 372 3047 722 3315 
Q 1072 3584 1716 3584 
Q 2034 3584 2315 3537 
Q 2597 3491 2834 3397 
z
" transform="scale(0.015625)"/>
     <path id="DejaVuSans-66" d="M 2375 4863 
L 2375 4384 
L 1825 4384 
Q 1516 4384 1395 4259 
Q 1275 4134 1275 3809 
L 1275 3500 
L 2222 3500 
L 2222 3053 
L 1275 3053 
L 1275 0 
L 697 0 
L 697 3053 
L 147 3053 
L 147 3500 
L 697 3500 
L 697 3744 
Q 697 4328 969 4595 
Q 1241 4863 1831 4863 
L 2375 4863 
z
" transform="scale(0.015625)"/>
     <path id="DejaVuSans-6f" d="M 1959 3097 
Q 1497 3097 1228 2736 
Q 959 2375 959 1747 
Q 959 1119 1226 758 
Q 1494 397 1959 397 
Q 2419 397 2687 759 
Q 2956 1122 2956 1747 
Q 2956 2369 2687 2733 
Q 2419 3097 1959 3097 
z
M 1959 3584 
Q 2709 3584 3137 3096 
Q 3566 2609 3566 1747 
Q 3566 888 3137 398 
Q 2709 -91 1959 -91 
Q 1206 -91 779 398 
Q 353 888 353 1747 
Q 353 2609 779 3096 
Q 1206 3584 1959 3584 
z
" transform="scale(0.015625)"/>
     <path id="DejaVuSans-67" d="M 2906 1791 
Q 2906 2416 2648 2759 
Q 2391 3103 1925 3103 
Q 1463 3103 1205 2759 
Q 947 2416 947 1791 
Q 947 1169 1205 825 
Q 1463 481 1925 481 
Q 2391 481 2648 825 
Q 2906 1169 2906 1791 
z
M 3481 434 
Q 3481 -459 3084 -895 
Q 2688 -1331 1869 -1331 
Q 1566 -1331 1297 -1286 
Q 1028 -1241 775 -1147 
L 775 -588 
Q 1028 -725 1275 -790 
Q 1522 -856 1778 -856 
Q 2344 -856 2625 -561 
Q 2906 -266 2906 331 
L 2906 616 
Q 2728 306 2450 153 
Q 2172 0 1784 0 
Q 1141 0 747 490 
Q 353 981 353 1791 
Q 353 2603 747 3093 
Q 1141 3584 1784 3584 
Q 2172 3584 2450 3431 
Q 2728 3278 2906 2969 
L 2906 3500 
L 3481 3500 
L 3481 434 
z
" transform="scale(0.015625)"/>
     <path id="DejaVuSans-6c" d="M 603 4863 
L 1178 4863 
L 1178 0 
L 603 0 
L 603 4863 
z
" transform="scale(0.015625)"/>
     <path id="DejaVuSans-65" d="M 3597 1894 
L 3597 1613 
L 953 1613 
Q 991 1019 1311 708 
Q 1631 397 2203 397 
Q 2534 397 2845 478 
Q 3156 559 3463 722 
L 3463 178 
Q 3153 47 2828 -22 
Q 2503 -91 2169 -91 
Q 1331 -91 842 396 
Q 353 884 353 1716 
Q 353 2575 817 3079 
Q 1281 3584 2069 3584 
Q 2775 3584 3186 3129 
Q 3597 2675 3597 1894 
z
M 3022 2063 
Q 3016 2534 2758 2815 
Q 2500 3097 2075 3097 
Q 1594 3097 1305 2825 
Q 1016 2553 972 2059 
L 3022 2063 
z
" transform="scale(0.015625)"/>
     <path id="DejaVuSans-6e" d="M 3513 2113 
L 3513 0 
L 2938 0 
L 2938 2094 
Q 2938 2591 2744 2837 
Q 2550 3084 2163 3084 
Q 1697 3084 1428 2787 
Q 1159 2491 1159 1978 
L 1159 0 
L 581 0 
L 581 3500 
L 1159 3500 
L 1159 2956 
Q 1366 3272 1645 3428 
Q 1925 3584 2291 3584 
Q 2894 3584 3203 3211 
Q 3513 2838 3513 2113 
z
" transform="scale(0.015625)"/>
     <path id="DejaVuSans-62" d="M 3116 1747 
Q 3116 2381 2855 2742 
Q 2594 3103 2138 3103 
Q 1681 3103 1420 2742 
Q 1159 2381 1159 1747 
Q 1159 1113 1420 752 
Q 1681 391 2138 391 
Q 2594 391 2855 752 
Q 3116 1113 3116 1747 
z
M 1159 2969 
Q 1341 3281 1617 3432 
Q 1894 3584 2278 3584 
Q 2916 3584 3314 3078 
Q 3713 2572 3713 1747 
Q 3713 922 3314 415 
Q 2916 -91 2278 -91 
Q 1894 -91 1617 61 
Q 1341 213 1159 525 
L 1159 0 
L 581 0 
L 581 4863 
L 1159 4863 
L 1159 2969 
z
" transform="scale(0.015625)"/>
    </defs>
    <use xlink:href="#DejaVuSans-52"/>
    <use xlink:href="#DejaVuSans-61" x="67.232422"/>
    <use xlink:href="#DejaVuSans-64" x="128.511719"/>
    <use xlink:href="#DejaVuSans-61" x="191.988281"/>
    <use xlink:href="#DejaVuSans-72" x="253.267578"/>
    <use xlink:href="#DejaVuSans-20" x="294.380859"/>
    <use xlink:href="#DejaVuSans-43" x="326.167969"/>
    <use xlink:href="#DejaVuSans-68" x="395.992188"/>
    <use xlink:href="#DejaVuSans-61" x="459.371094"/>
    <use xlink:href="#DejaVuSans-72" x="520.650391"/>
    <use xlink:href="#DejaVuSans-74" x="561.763672"/>
    <use xlink:href="#DejaVuSans-73" x="600.972656"/>
    <use xlink:href="#DejaVuSans-20" x="653.072266"/>
    <use xlink:href="#DejaVuSans-66" x="684.859375"/>
    <use xlink:href="#DejaVuSans-6f" x="720.064453"/>
    <use xlink:href="#DejaVuSans-72" x="781.246094"/>
    <use xlink:href="#DejaVuSans-20" x="822.359375"/>
    <use xlink:href="#DejaVuSans-67" x="854.146484"/>
    <use xlink:href="#DejaVuSans-6f" x="917.623047"/>
    <use xlink:href="#DejaVuSans-6c" x="978.804688"/>
    <use xlink:href="#DejaVuSans-64" x="1006.587891"/>
    <use xlink:href="#DejaVuSans-65" x="1070.064453"/>
    <use xlink:href="#DejaVuSans-6e" x="1131.587891"/>
    <use xlink:href="#DejaVuSans-62" x="1194.966797"/>
    <use xlink:href="#DejaVuSans-65" x="1258.443359"/>
    <use xlink:href="#DejaVuSans-61" x="1319.966797"/>
    <use xlink:href="#DejaVuSans-72" x="1381.246094"/>
   </g>
  </g>
 </g>
 <defs>
  <clipPath id="p751b78e873">
   <path d="M 428.200227 270 
C 428.200227 247.444683 423.757322 225.108689 415.125776 204.270294 
C 406.49423 183.431898 393.841905 164.496357 377.892888 148.547339 
C 361.943871 132.598322 343.008329 119.945997 322.169934 111.314451 
C 301.331538 102.682906 278.995544 98.24 256.440227 98.24 
C 233.884911 98.24 211.548916 102.682906 190.710521 111.314451 
C 169.872126 119.945997 150.936584 132.598322 134.987567 148.547339 
C 119.038549 164.496357 106.386225 183.431898 97.754679 204.270294 
C 89.123133 225.108689 84.680227 247.444683 84.680227 270 
C 84.680227 292.555317 89.123133 314.891311 97.754679 335.729706 
C 106.386225 356.568102 119.038549 375.503643 134.987567 391.452661 
C 150.936584 407.401678 169.872126 420.054003 190.710521 428.685549 
C 211.548916 437.317094 233.884911 441.76 256.440227 441.76 
C 278.995544 441.76 301.331538 437.317094 322.169934 428.685549 
C 343.008329 420.054003 361.943871 407.401678 377.892888 391.452661 
C 393.841905 375.503643 406.49423 356.568102 415.125776 335.729706 
C 423.757322 314.891311 428.200227 292.555317 428.200227 270 
M 256.440227 270 
C 256.440227 270 256.440227 270 256.440227 270 
C 256.440227 270 256.440227 270 256.440227 270 
C 256.440227 270 256.440227 270 256.440227 270 
C 256.440227 270 256.440227 270 256.440227 270 
C 256.440227 270 256.440227 270 256.440227 270 
C 256.440227 270 256.440227 270 256.440227 270 
C 256.440227 270 256.440227 270 256.440227 270 
C 256.440227 270 256.440227 270 256.440227 270 
C 256.440227 270 256.440227 270 256.440227 270 
C 256.440227 270 256.440227 270 256.440227 270 
C 256.440227 270 256.440227 270 256.440227 270 
C 256.440227 270 256.440227 270 256.440227 270 
C 256.440227 270 256.440227 270 256.440227 270 
C 256.440227 270 256.440227 270 256.440227 270 
C 256.440227 270 256.440227 270 256.440227 270 
C 256.440227 270 256.440227 270 256.440227 270 
z
"/>
  </clipPath>
  <clipPath id="p7aff3a8109">
   <path d="M 923.319773 270 
C 923.319773 247.444683 918.876867 225.108689 910.245321 204.270294 
C 901.613775 183.431898 888.961451 164.496357 873.012433 148.547339 
C 857.063416 132.598322 838.127874 119.945997 817.289479 111.314451 
C 796.451084 102.682906 774.115089 98.24 751.559773 98.24 
C 729.004456 98.24 706.668462 102.682906 685.830066 111.314451 
C 664.991671 119.945997 646.056129 132.598322 630.107112 148.547339 
C 614.158095 164.496357 601.50577 183.431898 592.874224 204.270294 
C 584.242678 225.108689 579.799773 247.444683 579.799773 270 
C 579.799773 292.555317 584.242678 314.891311 592.874224 335.729706 
C 601.50577 356.568102 614.158095 375.503643 630.107112 391.452661 
C 646.056129 407.401678 664.991671 420.054003 685.830066 428.685549 
C 706.668462 437.317094 729.004456 441.76 751.559773 441.76 
C 774.115089 441.76 796.451084 437.317094 817.289479 428.685549 
C 838.127874 420.054003 857.063416 407.401678 873.012433 391.452661 
C 888.961451 375.503643 901.613775 356.568102 910.245321 335.729706 
C 918.876867 314.891311 923.319773 292.555317 923.319773 270 
M 751.559773 270 
C 751.559773 270 751.559773 270 751.559773 270 
C 751.559773 270 751.559773 270 751.559773 270 
C 751.559773 270 751.559773 270 751.559773 270 
C 751.559773 270 751.559773 270 751.559773 270 
C 751.559773 270 751.559773 270 751.559773 270 
C 751.559773 270 751.559773 270 751.559773 270 
C 751.559773 270 751.559773 270 751.559773 270 
C 751.559773 270 751.559773 270 751.559773 270 
C 751.559773 270 751.559773 270 751.559773 270 
C 751.559773 270 751.559773 270 751.559773 270 
C 751.559773 270 751.559773 270 751.559773 270 
C 751.559773 270 751.559773 270 751.559773 270 
C 751.559773 270 751.559773 270 751.559773 270 
C 751.559773 270 751.559773 270 751.559773 270 
C 751.559773 270 751.559773 270 751.559773 270 
C 751.559773 270 751.559773 270 751.559773 270 
z
"/>
  </clipPath>
  <clipPath id="p9683db525e">
   <path d="M 428.200227 662.4 
C 428.200227 639.844683 423.757322 617.508689 415.125776 596.670294 
C 406.49423 575.831898 393.841905 556.896357 377.892888 540.947339 
C 361.943871 524.998322 343.008329 512.345997 322.169934 503.714451 
C 301.331538 495.082906 278.995544 490.64 256.440227 490.64 
C 233.884911 490.64 211.548916 495.082906 190.710521 503.714451 
C 169.872126 512.345997 150.936584 524.998322 134.987567 540.947339 
C 119.038549 556.896357 106.386225 575.831898 97.754679 596.670294 
C 89.123133 617.508689 84.680227 639.844683 84.680227 662.4 
C 84.680227 684.955317 89.123133 707.291311 97.754679 728.129706 
C 106.386225 748.968102 119.038549 767.903643 134.987567 783.852661 
C 150.936584 799.801678 169.872126 812.454003 190.710521 821.085549 
C 211.548916 829.717094 233.884911 834.16 256.440227 834.16 
C 278.995544 834.16 301.331538 829.717094 322.169934 821.085549 
C 343.008329 812.454003 361.943871 799.801678 377.892888 783.852661 
C 393.841905 767.903643 406.49423 748.968102 415.125776 728.129706 
C 423.757322 707.291311 428.200227 684.955317 428.200227 662.4 
M 256.440227 662.4 
C 256.440227 662.4 256.440227 662.4 256.440227 662.4 
C 256.440227 662.4 256.440227 662.4 256.440227 662.4 
C 256.440227 662.4 256.440227 662.4 256.440227 662.4 
C 256.440227 662.4 256.440227 662.4 256.440227 662.4 
C 256.440227 662.4 256.440227 662.4 256.440227 662.4 
C 256.440227 662.4 256.440227 662.4 256.440227 662.4 
C 256.440227 662.4 256.440227 662.4 256.440227 662.4 
C 256.440227 662.4 256.440227 662.4 256.440227 662.4 
C 256.440227 662.4 256.440227 662.4 256.440227 662.4 
C 256.440227 662.4 256.440227 662.4 256.440227 662.4 
C 256.440227 662.4 256.440227 662.4 256.440227 662.4 
C 256.440227 662.4 256.440227 662.4 256.440227 662.4 
C 256.440227 662.4 256.440227 662.4 256.440227 662.4 
C 256.440227 662.4 256.440227 662.4 256.440227 662.4 
C 256.440227 662.4 256.440227 662.4 256.440227 662.4 
C 256.440227 662.4 256.440227 662.4 256.440227 662.4 
z
"/>
  </clipPath>
  <clipPath id="p3668c4e3ab">
   <path d="M 923.319773 662.4 
C 923.319773 639.844683 918.876867 617.508689 910.245321 596.670294 
C 901.613775 575.831898 888.961451 556.896357 873.012433 540.947339 
C 857.063416 524.998322 838.127874 512.345997 817.289479 503.714451 
C 796.451084 495.082906 774.115089 490.64 751.559773 490.64 
C 729.004456 490.64 706.668462 495.082906 685.830066 503.714451 
C 664.991671 512.345997 646.056129 524.998322 630.107112 540.947339 
C 614.158095 556.896357 601.50577 575.831898 592.874224 596.670294 
C 584.242678 617.508689 579.799773 639.844683 579.799773 662.4 
C 579.799773 684.955317 584.242678 707.291311 592.874224 728.129706 
C 601.50577 748.968102 614.158095 767.903643 630.107112 783.852661 
C 646.056129 799.801678 664.991671 812.454003 685.830066 821.085549 
C 706.668462 829.717094 729.004456 834.16 751.559773 834.16 
C 774.115089 834.16 796.451084 829.717094 817.289479 821.085549 
C 838.127874 812.454003 857.063416 799.801678 873.012433 783.852661 
C 888.961451 767.903643 901.613775 748.968102 910.245321 728.129706 
C 918.876867 707.291311 923.319773 684.955317 923.319773 662.4 
M 751.559773 662.4 
C 751.559773 662.4 751.559773 662.4 751.559773 662.4 
C 751.559773 662.4 751.559773 662.4 751.559773 662.4 
C 751.559773 662.4 751.559773 662.4 751.559773 662.4 
C 751.559773 662.4 751.559773 662.4 751.559773 662.4 
C 751.559773 662.4 751.559773 662.4 751.559773 662.4 
C 751.559773 662.4 751.559773 662.4 751.559773 662.4 
C 751.559773 662.4 751.559773 662.4 751.559773 662.4 
C 751.559773 662.4 751.559773 662.4 751.559773 662.4 
C 751.559773 662.4 751.559773 662.4 751.559773 662.4 
C 751.559773 662.4 751.559773 662.4 751.559773 662.4 
C 751.559773 662.4 751.559773 662.4 751.559773 662.4 
C 751.559773 662.4 751.559773 662.4 751.559773 662.4 
C 751.559773 662.4 751.559773 662.4 751.559773 662.4 
C 751.559773 662.4 751.559773 662.4 751.559773 662.4 
C 751.559773 662.4 751.559773 662.4 751.559773 662.4 
C 751.559773 662.4 751.559773 662.4 751.559773 662.4 
z
"/>
  </clipPath>
 </defs>
</svg>
